<svg width="100%" height="auto" viewBox="0 0 123 31" fill="none" xmlns="http://www.w3.org/2000/svg">
<path fill-rule="evenodd" clip-rule="evenodd" d="M14.4775 0.71518C14.5781 0.5406 14.8299 0.540572 14.9305 0.71513L27.302 22.173C27.4026 22.3474 27.2768 22.5654 27.0756 22.5654H25.493C25.3528 22.5654 25.2233 22.4906 25.1532 22.3691L14.8178 4.44617C14.7675 4.3589 14.6416 4.35892 14.5913 4.44621L13.6497 6.08016C13.6031 6.16107 13.6031 6.26071 13.6498 6.34162L25.0375 26.0981C25.138 26.2725 25.0122 26.4905 24.8109 26.4905H18.703C18.5631 26.4905 18.4337 26.4159 18.3636 26.2947L10.2708 12.3082C10.2204 12.221 10.0946 12.2212 10.0444 12.3085L9.1133 13.9281C9.06678 14.0091 9.06687 14.1087 9.11354 14.1895L18.2531 30.023C18.3538 30.1974 18.228 30.4155 18.0267 30.4155H11.8733C11.7324 30.4155 11.6023 30.3399 11.5325 30.2173L5.78553 20.1242C5.73539 20.0361 5.60852 20.0361 5.55835 20.1241L4.27541 22.3763C4.2084 22.4939 4.20671 22.6378 4.27095 22.757L5.01752 24.142C5.11149 24.3164 4.98532 24.5279 4.78738 24.5279H1.24234C1.04169 24.5279 0.9158 24.3111 1.01517 24.1367L5.44075 16.3678C5.54106 16.1917 5.79473 16.1917 5.89507 16.3678L12.7069 28.321C12.7534 28.4026 12.8401 28.453 12.934 28.453H14.8472C14.9479 28.453 15.0108 28.344 14.9605 28.2568L6.8861 14.2592C6.81616 14.138 6.81605 13.9886 6.88581 13.8673L9.92557 8.57932C10.026 8.40469 10.2776 8.40433 10.3785 8.57868L19.5696 24.4627C19.5929 24.5031 19.6361 24.528 19.6827 24.528H21.6417C21.7423 24.528 21.8052 24.419 21.7549 24.3317L11.4234 6.40722C11.3535 6.28586 11.3535 6.1364 11.4234 6.01503L14.4775 0.71518ZM107.181 21.9826L104.362 16.8851C105.19 16.6094 105.966 16.0479 106.472 15.3353C106.977 14.6226 107.244 13.7671 107.232 12.8927C107.232 12.3113 107.114 11.736 106.885 11.2019C106.656 10.6678 106.32 10.1862 105.898 9.78671C105.477 9.38719 104.978 9.07812 104.433 8.87843C103.888 8.67874 103.309 8.59263 102.729 8.6254H97.8458C97.6473 8.6254 97.4864 8.78632 97.4864 8.98481V10.3185C97.4864 10.517 97.6473 10.6779 97.8458 10.6779H102.705C103.057 10.6779 103.416 10.7152 103.621 10.7724C103.835 10.835 104.188 11.0248 104.419 11.2326C104.65 11.4404 104.835 11.6946 104.961 11.9786C105.088 12.2626 105.153 12.5701 105.153 12.8811C105.153 13.1921 105.088 13.4996 104.961 13.7836C104.835 14.0676 104.65 14.3218 104.419 14.5296C104.188 14.7374 103.916 14.8942 103.621 14.9898C103.371 15.0708 102.997 15.0881 102.705 15.0843H97.8458C97.6473 15.0843 97.4864 15.2452 97.4864 15.4437V22.1565C97.4864 22.355 97.6473 22.5159 97.8458 22.5159H99.1634C99.3619 22.5159 99.5228 22.355 99.5228 22.1565V17.3764C99.5228 17.2441 99.63 17.1368 99.7624 17.1368H101.946C102.033 17.1368 102.112 17.1835 102.155 17.2588L105.013 22.3329C105.076 22.446 105.196 22.5159 105.326 22.5159H106.867C107.141 22.5159 107.314 22.2221 107.181 21.9826ZM43.6354 18.503H39.5055C39.4119 18.503 39.3269 18.5575 39.2878 18.6425L37.5798 22.3552C37.5211 22.4827 37.3936 22.5644 37.2533 22.5644H35.6885C35.4257 22.5644 35.2517 22.2915 35.3626 22.0533L37.8155 16.7835C37.8745 16.6567 38.0016 16.5757 38.1413 16.5757H42.5138C42.6893 16.5757 42.8052 16.3933 42.7308 16.2344L41.1788 12.9224C41.1393 12.8383 41.0547 12.7845 40.9618 12.7845H40.241C39.9783 12.7845 39.8043 12.5117 39.9152 12.2735L41.2676 9.36648C41.3964 9.08957 41.79 9.08935 41.9192 9.36611L47.8388 22.053C47.95 22.2913 47.7761 22.5644 47.5131 22.5644H45.9292C45.7901 22.5644 45.6634 22.484 45.6041 22.3582L43.8522 18.6405C43.8126 18.5566 43.7282 18.503 43.6354 18.503ZM87.4242 22.5159C91.2613 22.5159 94.3719 19.4049 94.3719 15.5673C94.3719 11.7296 91.2613 8.61861 87.4242 8.61861C83.5871 8.61861 80.4765 11.7296 80.4765 15.5673C80.4765 19.4049 83.5871 22.5159 87.4242 22.5159ZM87.4242 20.4793C90.1366 20.4793 92.3355 18.2801 92.3355 15.5673C92.3355 12.8545 90.1366 10.6553 87.4242 10.6553C84.7117 10.6553 82.5129 12.8545 82.5129 15.5673C82.5129 18.2801 84.7117 20.4793 87.4242 20.4793ZM77.8817 19.747C77.9959 19.5954 77.9615 19.3819 77.8116 19.2655L76.775 18.4613C76.6083 18.3319 76.3673 18.3742 76.2394 18.5421C75.3422 19.7194 73.9253 20.4793 72.3309 20.4793C69.6185 20.4793 67.4196 18.2801 67.4196 15.5673C67.4196 12.8545 69.6185 10.6553 72.3309 10.6553C73.9296 10.6553 75.3499 11.4192 76.2467 12.602C76.3745 12.7705 76.616 12.8132 76.783 12.6835L77.8192 11.879C77.9689 11.7627 78.0034 11.5496 77.8896 11.398C76.622 9.71031 74.604 8.61861 72.3309 8.61861C68.4938 8.61861 65.3833 11.7296 65.3833 15.5673C65.3833 19.4049 68.4938 22.5159 72.3309 22.5159C74.5992 22.5159 76.6136 21.4288 77.8817 19.747ZM62.359 19.2655C62.509 19.3819 62.5434 19.5954 62.4291 19.747C61.1611 21.4288 59.1467 22.5159 56.8784 22.5159C53.0413 22.5159 49.9307 19.4049 49.9307 15.5673C49.9307 11.7296 53.0413 8.61861 56.8784 8.61861C59.1514 8.61861 61.1695 9.71031 62.437 11.398C62.5508 11.5496 62.5164 11.7627 62.3667 11.879L61.3305 12.6835C61.1635 12.8132 60.9219 12.7705 60.7942 12.602C59.8974 11.4192 58.4771 10.6553 56.8784 10.6553C54.166 10.6553 51.9671 12.8545 51.9671 15.5673C51.9671 18.2801 54.166 20.4793 56.8784 20.4793C58.4728 20.4793 59.8897 19.7194 60.7869 18.5421C60.9148 18.3742 61.1558 18.3319 61.3225 18.4613L62.359 19.2655ZM110.903 8.61861H112.58H115.335V8.61989C119.145 8.65205 122.342 11.7496 122.342 15.5673C122.342 19.3849 119.145 22.4835 115.335 22.5157V22.5159H115.275H112.58H110.903C110.704 22.5159 110.543 22.355 110.543 22.1565V20.4793V10.6553V8.97803C110.543 8.77953 110.704 8.61861 110.903 8.61861ZM112.58 10.6553H115.275V10.6567C117.987 10.6567 120.306 12.8545 120.306 15.5673C120.306 18.2801 117.987 20.4793 115.275 20.4793H112.58V10.6553Z" fill="#fff"></path>
</svg>