<?xml version="1.0" encoding="UTF-8"?>
<svg viewBox="0 0 96 40" version="1.1" xmlns="http://www.w3.org/2000/svg" xmlns:xlink="http://www.w3.org/1999/xlink">
    <g id="Landing-Page" stroke="none" stroke-width="1" fill="none" fill-rule="evenodd">
        <g id="Amira-Landing" transform="translate(-112.000000, -64.000000)" fill-rule="nonzero">
            <g id="AmiraLogo" transform="translate(112.000000, 64.000000)">
                <polygon id="Path" fill="#fff" points="24.0571429 16.4244898 24.0571429 31.7632653 27.355102 31.7632653 27.3877551 22.9061224 33.5183673 31.7632653 36.8081633 31.8040816 42.9877551 22.8408163 43.0040816 31.755102 46.3020408 31.7632653 46.3020408 16.4244898 42.9959184 16.4244898 35.1836735 27.6653061 27.2897959 16.4081633"></polygon>
                <rect id="Rectangle" fill="#fff" x="48.4571429" y="16.3918367" width="3.28163265" height="15.3877551"></rect>
                <path d="M18.955102,31.7795918 L23.0367347,31.7795918 L13.6163265,16.4244898 L10.244898,16.4244898 L0.00816326531,31.7795918 L4.57142857,31.7795918 L6.20408163,29.1673469 L17.3387755,29.1673469 L18.955102,31.7795918 Z M8.17959184,26.155102 L11.8938776,20.3673469 L15.477551,26.155102 L8.17959184,26.155102 Z" id="Shape" fill="#fff"></path>
                <path d="M90.6285714,31.7795918 L94.7102041,31.7795918 L85.2816327,16.4244898 L81.9265306,16.4244898 L71.6897959,31.7795918 L76.2530612,31.7795918 L77.8857143,29.1673469 L88.9795918,29.1673469 L90.6285714,31.7795918 Z M79.8530612,26.155102 L83.5673469,20.3673469 L87.1510204,26.155102 L79.8530612,26.155102 Z" id="Shape" fill="#fff"></path>
                <path d="M71.3224546,22.0326531 L71.3224546,19.9673469 C71.3202998,19.0162199 70.9392781,18.105146 70.263671,17.4356668 C69.5880639,16.7661877 68.6735562,16.393483 67.722449,16.399916 L54.1877551,16.399916 L54.1877551,31.7795918 L57.5020408,31.7795918 L57.5020408,25.6244898 L64.555102,25.6244898 L67.7469388,31.7795918 L71.2244898,31.7795918 L67.9591837,25.6081633 L67.9591837,25.6081633 C69.8505432,25.4956954 71.3257899,23.9273505 71.3224546,22.0326531 L71.3224546,22.0326531 Z M57.444898,19.6408163 L66.8326531,19.6408163 C67.3511245,19.6408163 67.7714286,20.0611204 67.7714286,20.5795918 L67.7714286,21.5102041 C67.7714286,22.0286755 67.3511245,22.4489796 66.8326531,22.4489796 L64.155102,22.4489796 L57.4367347,22.4489796 L57.4367347,19.6326531 L57.444898,19.6408163 Z" id="Shape" fill="#fff"></path>
                <polygon id="Path" fill="#fff" points="49.444898 34.6857143 49.4530612 39.844898 50.6040816 39.844898 50.5959184 36.1959184 55.0857143 39.8530612 56.2285714 39.8530612 56.2285714 34.6857143 55.0857143 34.6857143 55.077551 38.4081633 50.4979592 34.677551"></polygon>
                <polygon id="Path" fill="#fff" points="61.9020408 34.6857143 61.9020408 39.844898 63.0530612 39.844898 63.0530612 36.1959184 67.5428571 39.8530612 68.677551 39.8530612 68.677551 34.6857143 67.5428571 34.6857143 67.5428571 38.4081633 62.9469388 34.677551"></polygon>
                <rect id="Rectangle" fill="#fff" x="58.3918367" y="34.6693878" width="1.10204082" height="5.18367347"></rect>
                <polygon id="Rectangle" fill="#fff" transform="translate(7.877551, 37.285714) rotate(90.000000) translate(-7.877551, -37.285714) " points="7.35918367 29.4081633 8.39591837 29.4081633 8.39591837 45.1632653 7.35918367 45.1632653"></polygon>
                <polygon id="Rectangle" fill="#fff" transform="translate(87.175510, 37.285714) rotate(90.000000) translate(-87.175510, -37.285714) " points="86.6571429 29.4081633 87.6938776 29.4081633 87.6938776 45.1632653 86.6571429 45.1632653"></polygon>
                <path d="M38.7591837,39.8285714 L40.1306122,39.8285714 L36.9632653,34.6693878 L35.8285714,34.6693878 L32.4,39.8285714 L33.9346939,39.8285714 L34.4979592,38.955102 L38.2285714,38.955102 L38.7591837,39.8285714 Z M35.1346939,37.9428571 L36.3836735,36 L37.5918367,37.9428571 L35.1428571,37.9428571 L35.1346939,37.9428571 Z" id="Shape" fill="#fff"></path>
                <path d="M47.4285714,36.5632653 L47.4285714,35.8693878 C47.4285714,35.2066461 46.8913131,34.6693878 46.2285714,34.6693878 L41.6816327,34.6693878 L41.6816327,39.8285714 L42.7918367,39.8285714 L42.7918367,37.7632653 L45.1591837,37.7632653 L46.2285714,39.8285714 L47.3959184,39.8285714 L46.3102041,37.755102 L46.3102041,37.755102 C46.9377369,37.71232 47.4257492,37.1922484 47.4285714,36.5632653 L47.4285714,36.5632653 Z M42.7836735,35.7469388 L45.9346939,35.7469388 C46.1042046,35.7512322 46.2406045,35.8876321 46.244898,36.0571429 L46.244898,36.3673469 C46.2406045,36.5368577 46.1042046,36.6732576 45.9346939,36.677551 L42.7836735,36.677551 L42.7836735,35.7469388 Z" id="Shape" fill="#fff"></path>
                <polygon id="Path" fill="#fff" points="18.2122449 34.6693878 19.3877551 34.6693878 19.3877551 38.8081633 23.4122449 38.8081633 23.4122449 39.844898 18.2285714 39.844898"></polygon>
                <polygon id="Path" fill="#fff" points="26.6693878 35.8612245 30.6693878 35.8612245 30.6693878 34.677551 25.5265306 34.677551 25.5265306 39.844898 30.6693878 39.844898 30.6693878 38.8163265 26.6693878 38.8163265 26.6693878 37.844898 30.6693878 37.844898 30.6693878 36.7591837 26.6693878 36.7591837"></polygon>
                <path d="M75.5918367,36.7918367 L74.4734694,36.7918367 L74.4734694,37.844898 L75.5918367,37.844898 L75.5918367,38.4897959 C75.5918367,38.5699021 75.5600147,38.6467274 75.503371,38.703371 C75.4467274,38.7600147 75.3699021,38.7918367 75.2897959,38.7918367 L72.0244898,38.7918367 C71.8576773,38.7918367 71.722449,38.6566085 71.722449,38.4897959 L71.722449,36.0408163 C71.722449,35.8740038 71.8576773,35.7387755 72.0244898,35.7387755 L76.7020408,35.7387755 L76.7020408,34.6857143 L71.6979592,34.6857143 C71.1118611,34.6857143 70.6367347,35.1608407 70.6367347,35.7469388 L70.6367347,38.7836735 C70.6367347,39.3697716 71.1118611,39.844898 71.6979592,39.844898 L75.6489796,39.844898 C75.9304338,39.844898 76.2003604,39.7330907 76.3993786,39.5340725 C76.5983968,39.3350543 76.7102041,39.0651277 76.7102041,38.7836735 L76.7102041,36.7836735 L75.6244898,36.7836735 L75.5918367,36.7918367 Z" id="Path" fill="#fff"></path>
                <polygon id="Path" fill="#fff" points="53.8122449 2.35102041 29.2326531 0 6.53061224 9.24081633 31.4204082 11.5102041 49.5183673 4.10612245 49.5183673 10.6530612 50.555102 10.6530612 50.555102 3.68163265"></polygon>
                <ellipse id="Oval" fill="#fff" cx="50.0326531" cy="11.2" rx="1.75510204" ry="1.6"></ellipse>
            </g>
        </g>
    </g>
</svg>