<svg viewBox="0 0 108 21" fill="none" xmlns="http://www.w3.org/2000/svg">
    <g fill="none" fill-rule="evenodd">
      <path d="M36.9688 15.454c0 .0195.004.039.0116.0562.2243.503.7358.8442 1.4318.8442 1.0886 0 1.7422-.8982 1.7422-2.096 0-1.1984-.6536-2.0962-1.7422-2.0962-.6424 0-1.2053.3413-1.4314.8438-.008.018-.012.037-.012.057v2.391zm-.1286 4.9845h-4.9155c-.0713 0-.1286-.0574-.1286-.1287V2.8706c0-.071.0574-.1283.1287-.1283h4.9155c.0712 0 .1286.0574.1286.1283V8.728c0 .1113.1298.1687.2134.0956.6255-.545 1.6927-1.018 2.7814-1.018 3.5122 0 5.3636 2.886 5.3636 6.453 0 3.566-1.8514 6.452-5.3636 6.452-1.0887 0-2.156-.4727-2.7814-1.0173-.0836-.0735-.2134-.016-.2134.0953v.5213c0 .071-.0574.1285-.1286.1285zm16.6722-4.118c-.3097-.4407-.9596-.71-1.7884-.5412-.4424.09-.775.5108-.7008.9566.084.5043.636.7346 1.1872.7346.5948 0 1.0556-.2415 1.302-.5914.0034-.0045.0053-.01.0053-.0158v-.5272c0-.0056-.002-.011-.0053-.0158zm.0053-3.0694c0-.708-.763-1.3342-2.5324-1.3342-1.0485 0-2.336.2655-3.285.7706-.017.0087-.0364-.0033-.0364-.0225l-.0005-3.833c0-.061.0346-.1166.0904-.1413 1.117-.4976 2.7903-.885 4.593-.885 3.8924 0 6.153 1.7423 6.153 5.282v7.3255c0 .014-.0117.025-.026.025h-4.9308c-.0143 0-.0255-.011-.0255-.025v-.5164c0-.0217-.0244-.0337-.041-.019-.4398.3955-1.552.7788-2.818.7788-2.369 0-4.4382-1.307-4.4382-3.948 0-2.4233 2.0693-3.8937 4.71-3.8937.9803 0 2.0967.2996 2.5872.654v-.218zm6.5015 2.563c0-.104.1155-.1628.2022-.1054 1.2026.7912 3.1826 1.3016 4.263 1.3016.6536 0 .9802-.109.9802-.4357 0-.2996-.2182-.4088-.844-.5172l-.7347-.136c-2.3964-.4085-3.9755-1.5518-3.9755-3.812 0-2.7764 2.2327-4.2468 5.309-4.2468 1.874 0 3.274.342 4.5625 1.078.041.023.0656.0672.0656.1137v3.6402c0 .1008-.11.16-.1957.1072-1.201-.7417-2.5156-1.1824-3.8064-1.1824-.517 0-.8167.1088-.8167.4084 0 .2722.272.3814.626.463l.817.218c3.0494.7354 4.111 1.824 4.111 4.0564 0 2.7498-2.3685 4.0023-5.5815 4.0023-1.7936 0-3.6656-.3682-4.919-1.1054-.04-.0238-.0633-.0665-.0633-.1126V15.814zm25.603 4.6812h-5.3573c-.0455 0-.0875-.0236-.1107-.0626L77.436 15.885c-.0672-.112-.239-.0645-.239.066v4.4156c0 .0713-.0577.1287-.1286.1287h-4.916c-.0708 0-.1285-.0574-.1285-.1287V2.927c0-.071.0576-.1284.1285-.1284h4.916c.0708 0 .1285.0574.1285.1283v9.123c0 .128.1676.1772.237.069l2.502-3.9253c.0233-.0367.0645-.0592.1084-.0592h5.4547c.104 0 .165.117.1055.202l-3.8396 5.5c-.0294.0423-.031.0985-.0035.142l3.9694 6.32c.054.0854-.0076.1967-.109.1967zm4.7823-7.5417h2.4476c.08 0 .1438-.0727.127-.151-.148-.7006-.6207-1.1285-1.3074-1.1285-.705 0-1.1535.4425-1.3897 1.111-.029.0826.0355.1685.1225.1685zm.1455 2.5594c-.1016 0-.1612.1105-.11.198.473.8043 1.3828 1.1088 2.62 1.1088 1.2175 0 2.1884-.1725 3.405-.7984.0858-.0443.189.0157.189.112v3.476c0 .043-.0204.0836-.056.1076-.935.632-2.5406 1.0504-4.3822 1.0504-4.1655 0-6.9424-2.3685-6.9424-6.371 0-3.893 2.6685-6.534 6.1534-6.534 4.0563 0 6.1256 2.559 6.1256 6.262v1.26c0 .0707-.0578.1285-.1286.1285H90.55zm15.1654 4.9822h-5.1457v-8.3857h-1.933l-.0002-3.8464c0-.071.0574-.1285.1287-.1285h1.8045v-3.458h5.1457v3.458h2.2058v3.975h-2.2058v8.3857zM13.5484 9.7818V8.3532h3.0968v1.4286h-3.0968zm0-6.0715h6.1935V5.139l-1.5485 1.7856v2.8572h-.774v-2.143H12.774v2.143H12V6.9245l1.5484-1.7857V3.7102zM12 19.0675h.7742v-2.143H12v2.143zm0-2.8572h.7742v-2.1428H12v2.1428zm-1.5484 0h.7742v-2.1428h-.7742v2.1428zm0 2.8572h.7742v-2.143h-.7742v2.143zm-1.5484-2.8572h.7742v-2.1428h-.7742v2.1428zm0 2.8572h.7742v-2.143h-.7742v2.143zm-2.3226 0h.7742v-2.143h-.7742v2.143zm0-2.8572h.7742v-2.1428h-.7742v2.1428zm-1.5483 2.8572h.7742v-2.143h-.7742v2.143zm0-2.8572h.7742v-2.1428h-.7742v2.1428zM3.484 19.0675h.774v-2.143h-.774v2.143zm0-2.8572h.774v-2.1428h-.774v2.1428zm12-3.5714l-1.5485 7.857H2.3225L.7743 12.639H15.484zM0 11.9245V10.496h15.871v1.4286H0zM6.2423 3.115L7.337 2.1046c.1514-.1396.3964-.1396.5474 0 .1513.1396.1513.3657 0 .5054L6.7897 3.62c-.1514.1396-.3964.1396-.5474 0-.1513-.1397-.1513-.3654 0-.505zm3.6716-.148c.1513.1394.1513.3655 0 .505L8.2714 4.987c-.151.1397-.396.1397-.5474 0-.1508-.1392-.1508-.3653 0-.505l1.6426-1.515c.151-.1395.3964-.1395.5473 0zm.9344 1.3672c.1513-.1396.3964-.1396.5473 0 .1514.1397.1514.3654 0 .505l-1.642 1.5154c-.151.1393-.3964.1393-.5478 0-.151-.1393-.151-.3657 0-.5054l1.6424-1.515zM8.4948 7.3935c.2555-.074.5226-.1118.7955-.1118.7587 0 1.444.29 1.9355.7554V6.5676l1.5484-1.7858v-.6914l-2.563-2.3646c-1.436-1.325-3.765-1.325-5.201 0-1.4218 1.3125-1.4334 3.431-.0387 4.759.3697-.1737.7842-.2744 1.222-.2744.9604 0 1.8198.4657 2.3013 1.1832z" fill="#FFF"></path>
      <path d="M9.2903 7.996c1.0692 0 1.9355.7993 1.9355 1.7858H1.1613c0-.1415.022-.2768.0557-.4086.1673-.6565.7255-1.1715 1.437-1.3257.1428-.031.2895-.0515.4428-.0515.4544 0 .8663.1504 1.1965.3922.165-.8318.951-1.4636 1.9002-1.4636.9492 0 1.7354.6318 1.9003 1.4636.3302-.2418.742-.3922 1.1965-.3922zm7.355 3.9286V10.496H24v1.4286h-7.3548zM20.516 5.496l1.5485 1.7857v2.5h-3.0968v-2.5L20.516 5.496zm-4.2578 7.143h6.9677l-1.549 7.8572h-6.9676l1.5488-7.8572z" fill="#fff"></path>
    </g>
  </svg>