<svg xmlns="http://www.w3.org/2000/svg" xmlns:xlink="http://www.w3.org/1999/xlink" viewBox="327.5 32.918 116.383 32.5">
  <defs>
    <style>
      .cls-1 {
        fill: url(#linear-gradient);
      }

      .cls-2 {
        fill: #fff;
        stroke: rgba(0,0,0,0);
      }
    </style>
    <linearGradient id="linear-gradient" x1="0.292" y1="0.774" x2="0.833" y2="0.152" gradientUnits="objectBoundingBox">
      <stop offset="0" stop-color="#fff"/>
      <stop offset="1" stop-color="#fff"/>
    </linearGradient>
  </defs>
  <g id="Group_1" data-name="Group 1" transform="translate(-215.883 -401.856)">
    <g id="Group_21" data-name="Group 21" transform="translate(543.883 435.274)">
      <path id="Path_19" data-name="Path 19" class="cls-1" d="M2.862,0A2.862,2.862,0,1,0,5.724,2.862,2.869,2.869,0,0,0,2.862,0Z" transform="translate(17.859 1.252) rotate(-7)"/>
      <path id="Path_18" data-name="Path 18" class="cls-2" d="M6.412-140.184v-1.389a8.243,8.243,0,0,1,.655-3.572,4.894,4.894,0,0,1,1.786-2.064,6.884,6.884,0,0,1,2.619-.953,19.706,19.706,0,0,1,3.116-.238h1.349a2.577,2.577,0,0,1,1.409.417A1.858,1.858,0,0,1,18-146.3a1.986,1.986,0,0,1-.575,1.687,2.088,2.088,0,0,1-1.25.417H15.064a4.3,4.3,0,0,0-1.984.377,3.24,3.24,0,0,0-1.091.873,2.435,2.435,0,0,0-.476,1.012,4.539,4.539,0,0,0-.1.794v.953h4.009a2.132,2.132,0,0,1,1.488.456,2.253,2.253,0,0,1,.5,1.687,2.057,2.057,0,0,1-.516,1.647,2.214,2.214,0,0,1-1.429.417H11.412v16.153a1.434,1.434,0,0,1-.675,1.171,3.093,3.093,0,0,1-1.865.5,3,3,0,0,1-1.826-.476,1.437,1.437,0,0,1-.635-1.191v-16.153H4.467a2.032,2.032,0,0,1-1.171-.337q-.5-.337-.5-1.766t.556-1.766a2.806,2.806,0,0,1,1.468-.337Zm19.924,19.963a1.947,1.947,0,0,1-.675,1.409,2.51,2.51,0,0,1-1.826.655,2.556,2.556,0,0,1-1.826-.635,1.923,1.923,0,0,1-.675-1.429v-17.463a1.983,1.983,0,0,1,.794-1.746,2.92,2.92,0,0,1,1.707-.556,2.993,2.993,0,0,1,1.707.536,1.974,1.974,0,0,1,.794,1.766Zm4.683-15.836a3.339,3.339,0,0,1-.873-2.143,1.632,1.632,0,0,1,.913-1.191,2.49,2.49,0,0,1,1.726-.476q.814.119,1.925,1.627l3.81,5.279,3.85-5.358a3.47,3.47,0,0,1,1.687-1.468,2.317,2.317,0,0,1,1.607.2,2.16,2.16,0,0,1,1.23,1.191q.2.675-.675,1.905l-5.12,7.065,5.4,7.382a3.617,3.617,0,0,1,.873,2.084,1.7,1.7,0,0,1-1.032,1.369,2.513,2.513,0,0,1-1.707.417,2.859,2.859,0,0,1-1.588-1.29l-4.564-6.271-4.445,6.152a7.17,7.17,0,0,1-.794.992,1.81,1.81,0,0,1-.754.476,1.557,1.557,0,0,1-.853,0,5.814,5.814,0,0,1-1.091-.437q-.953-.556-.992-1.171a3.174,3.174,0,0,1,.794-1.766L35.9-129.31Zm31.513,5.16a11.455,11.455,0,0,0-.159-1.925,4.65,4.65,0,0,0-.575-1.627,3.193,3.193,0,0,0-1.111-1.111,3.476,3.476,0,0,0-1.806-.417,4.642,4.642,0,0,0-2.3.5,3.677,3.677,0,0,0-1.349,1.27,4.734,4.734,0,0,0-.635,1.667,9.459,9.459,0,0,0-.159,1.647ZM59-117.76a10.29,10.29,0,0,1-4.207-.794,7.99,7.99,0,0,1-2.977-2.242,9.68,9.68,0,0,1-1.786-3.512,16.591,16.591,0,0,1-.6-4.6,16.707,16.707,0,0,1,.6-4.564,10.282,10.282,0,0,1,1.806-3.632,8.574,8.574,0,0,1,3-2.4A9.383,9.383,0,0,1,59-140.383a8.536,8.536,0,0,1,3.85.794,7.239,7.239,0,0,1,2.6,2.143,9.052,9.052,0,0,1,1.488,3.135,14.577,14.577,0,0,1,.476,3.77,5.843,5.843,0,0,1-.437,2.54,1.649,1.649,0,0,1-1.627.873H54.435a8.033,8.033,0,0,0,.2,1.786,4.15,4.15,0,0,0,.734,1.588A3.873,3.873,0,0,0,56.8-122.6a5.2,5.2,0,0,0,2.282.437,6.046,6.046,0,0,0,2.8-.536,5.622,5.622,0,0,0,1.607-1.211,1.836,1.836,0,0,1,.873-.635,1.553,1.553,0,0,1,.814-.02,2.228,2.228,0,0,1,.675.3q.3.2.5.318a1.638,1.638,0,0,1,.6,1.647,3.851,3.851,0,0,1-1.131,2.064,8.072,8.072,0,0,1-2.7,1.746A10.455,10.455,0,0,1,59-117.76Zm15.836-11.192q.04,3.572,1.33,5.179a4.3,4.3,0,0,0,3.552,1.607,3.55,3.55,0,0,0,3.314-1.826,9.851,9.851,0,0,0,1.052-4.921,9.74,9.74,0,0,0-1.151-5.1,3.829,3.829,0,0,0-3.294-1.965,4.1,4.1,0,0,0-3.512,1.707A8.581,8.581,0,0,0,74.835-128.952ZM84-121.491a4.739,4.739,0,0,1-.833,1.31,6.4,6.4,0,0,1-1.31,1.131,6.748,6.748,0,0,1-1.707.794,6.748,6.748,0,0,1-2.024.3,7.641,7.641,0,0,1-3.354-.734,7.626,7.626,0,0,1-2.659-2.143,10.363,10.363,0,0,1-1.766-3.453,15.716,15.716,0,0,1-.635-4.663,15.918,15.918,0,0,1,.794-5.4,10.314,10.314,0,0,1,2.044-3.532,7.215,7.215,0,0,1,2.818-1.925,8.992,8.992,0,0,1,3.116-.575,5.6,5.6,0,0,1,3.294,1.131,6.406,6.406,0,0,1,2.3,3v-10a2.129,2.129,0,0,1,.615-1.349,2.354,2.354,0,0,1,1.885-.714,2.5,2.5,0,0,1,1.885.734,2.057,2.057,0,0,1,.615,1.33v26.036a2.524,2.524,0,0,1-.1.675,1.624,1.624,0,0,1-.4.675,2.175,2.175,0,0,1-.794.516,3.392,3.392,0,0,1-1.25.2,3.361,3.361,0,0,1-1.27-.2,2.2,2.2,0,0,1-.774-.516,1.624,1.624,0,0,1-.4-.675,2.525,2.525,0,0,1-.1-.675Z" transform="translate(-2.8 148.4)"/>
    </g>
    <path id="Path_17" data-name="Path 17" class="cls-1" d="M11.343,0A11.343,11.343,0,1,0,22.686,11.343,11.369,11.369,0,0,0,11.343,0Zm5.762,9.533L10.83,15.506a1.3,1.3,0,0,1-.845.332,1.191,1.191,0,0,1-.845-.362l-3.56-3.59a1.216,1.216,0,0,1,1.72-1.72l2.745,2.745,5.4-5.129a1.23,1.23,0,0,1,1.72.03A1.258,1.258,0,0,1,17.105,9.533Z" transform="translate(634.484 444.757) rotate(-7)"/>
  </g>
</svg>
