<svg id="svg" version="1.1" xmlns="http://www.w3.org/2000/svg" xmlns:xlink="http://www.w3.org/1999/xlink" width="400" height="62.67281105990783" viewBox="0, 0, 400,62.67281105990783"><g id="svgg"><path id="path0" d="M74.645 13.024 C 74.162 13.540,74.156 13.570,74.203 15.232 L 74.250 16.917 74.693 16.968 C 75.001 17.004,75.166 17.143,75.238 17.426 C 75.339 17.832,75.348 17.833,77.503 17.833 L 79.667 17.833 79.667 32.667 L 79.667 47.500 77.079 47.500 L 74.492 47.500 74.324 47.942 C 74.231 48.185,74.177 49.178,74.203 50.150 L 74.250 51.917 82.455 51.960 L 90.660 52.003 90.768 51.571 C 90.900 51.044,90.767 47.964,90.600 47.694 C 90.517 47.560,89.684 47.500,87.907 47.500 L 85.333 47.500 85.333 32.667 L 85.333 17.833 87.458 17.832 L 89.583 17.830 90.208 17.238 C 91.200 16.298,91.089 13.049,90.052 12.655 C 89.824 12.568,86.451 12.500,82.389 12.500 L 75.134 12.500 74.645 13.024 M101.903 12.913 C 101.762 13.475,101.886 17.365,102.053 17.625 C 102.148 17.774,102.800 17.833,104.343 17.833 L 106.500 17.833 106.500 25.322 L 106.500 32.810 106.126 32.863 C 105.566 32.943,105.541 33.263,105.520 40.704 L 105.500 47.492 102.792 47.538 L 100.083 47.583 100.037 49.792 L 99.990 52.000 107.656 52.000 C 116.642 52.000,115.743 52.265,115.638 49.646 C 115.552 47.508,115.674 47.595,112.659 47.530 L 110.167 47.476 110.167 43.317 L 110.167 39.158 110.583 39.000 L 111.000 38.842 111.025 31.129 C 111.039 26.887,111.081 23.623,111.119 23.875 C 111.173 24.230,111.280 24.333,111.594 24.333 C 111.970 24.333,112.000 24.395,112.000 25.171 C 112.000 25.901,112.051 26.028,112.400 26.160 C 112.721 26.282,112.821 26.474,112.913 27.141 C 113.008 27.834,113.094 27.987,113.430 28.072 C 113.789 28.162,113.833 28.264,113.833 29.000 C 113.833 29.744,113.875 29.838,114.251 29.932 C 114.670 30.037,114.782 30.275,114.871 31.250 C 114.905 31.621,115.012 31.764,115.283 31.802 C 115.599 31.847,115.657 31.974,115.700 32.719 C 115.747 33.524,115.782 33.587,116.208 33.636 C 116.644 33.686,116.667 33.732,116.667 34.577 C 116.667 35.306,116.741 35.535,117.080 35.858 C 117.308 36.073,117.496 36.409,117.497 36.604 C 117.504 37.480,117.715 38.006,118.096 38.102 C 118.430 38.185,118.491 38.318,118.534 39.058 C 118.577 39.804,118.633 39.924,118.958 39.970 C 119.278 40.015,119.334 40.125,119.336 40.720 C 119.339 41.534,119.460 41.772,119.917 41.857 C 120.190 41.909,120.259 42.073,120.300 42.777 C 120.344 43.529,120.400 43.647,120.758 43.737 C 121.112 43.826,121.167 43.935,121.167 44.553 C 121.167 45.314,121.386 45.667,121.858 45.667 C 122.092 45.667,122.159 45.839,122.200 46.542 L 122.250 47.417 123.667 47.466 C 125.738 47.538,125.833 47.496,125.833 46.515 C 125.833 45.788,125.877 45.692,126.250 45.598 C 126.623 45.505,126.667 45.409,126.667 44.680 C 126.667 43.925,126.703 43.853,127.167 43.692 C 127.632 43.529,127.667 43.460,127.667 42.687 C 127.667 41.953,127.710 41.850,128.042 41.803 C 128.368 41.757,128.423 41.637,128.467 40.875 C 128.509 40.142,128.569 40.000,128.836 40.000 C 129.242 40.000,129.500 39.519,129.500 38.761 C 129.500 38.434,129.570 38.167,129.655 38.167 C 130.044 38.167,130.333 37.604,130.333 36.847 C 130.333 36.058,130.666 35.500,131.138 35.500 C 131.264 35.500,131.333 35.173,131.333 34.583 C 131.333 33.728,131.360 33.667,131.732 33.667 C 132.193 33.667,132.333 33.394,132.333 32.498 C 132.333 31.960,132.394 31.848,132.708 31.803 C 133.035 31.757,133.090 31.637,133.134 30.875 C 133.174 30.172,133.241 30.000,133.475 30.000 C 133.948 30.000,134.167 29.647,134.167 28.887 C 134.167 28.268,134.221 28.159,134.575 28.070 C 134.933 27.981,134.990 27.862,135.034 27.109 C 135.076 26.378,135.136 26.242,135.439 26.199 C 135.796 26.148,136.000 25.620,136.000 24.749 C 136.000 24.479,136.119 24.349,136.417 24.293 L 136.833 24.213 136.833 31.167 C 136.833 39.057,136.872 39.616,137.441 39.875 L 137.833 40.054 137.833 43.777 L 137.833 47.500 135.365 47.500 C 132.153 47.500,132.309 47.374,132.369 49.919 L 132.417 51.917 140.167 51.917 L 147.917 51.917 147.967 50.250 C 147.995 49.333,147.972 48.340,147.918 48.042 L 147.818 47.500 145.076 47.500 L 142.333 47.500 142.331 39.958 C 142.328 32.336,142.315 32.145,141.792 31.951 C 141.520 31.851,141.500 31.358,141.500 24.839 L 141.500 17.833 143.663 17.833 C 146.242 17.833,146.034 18.103,145.965 14.833 L 145.917 12.583 141.187 12.539 C 135.909 12.490,136.000 12.471,136.000 13.604 C 136.000 14.303,135.979 14.333,135.500 14.333 C 135.005 14.333,135.000 14.343,135.000 15.250 C 135.000 16.117,134.977 16.167,134.583 16.167 C 134.190 16.167,134.167 16.217,134.167 17.072 C 134.167 17.936,134.146 17.980,133.708 18.031 C 133.282 18.080,133.247 18.143,133.200 18.948 C 133.157 19.693,133.099 19.820,132.783 19.865 C 132.468 19.909,132.410 20.036,132.367 20.776 C 132.324 21.516,132.263 21.648,131.928 21.732 C 131.528 21.833,131.340 22.247,131.336 23.034 C 131.334 23.290,131.154 23.665,130.917 23.902 C 130.662 24.156,130.500 24.508,130.500 24.805 C 130.500 25.863,130.314 26.333,129.896 26.333 C 129.527 26.333,129.500 26.396,129.500 27.250 C 129.500 28.104,129.473 28.167,129.104 28.167 C 128.698 28.167,128.500 28.637,128.500 29.604 C 128.500 29.915,128.411 30.000,128.083 30.000 C 127.689 30.000,127.667 30.050,127.667 30.917 C 127.667 31.776,127.641 31.833,127.262 31.833 C 126.897 31.833,126.846 31.922,126.744 32.741 C 126.649 33.498,126.571 33.657,126.274 33.699 C 125.970 33.742,125.909 33.877,125.867 34.602 C 125.826 35.304,125.750 35.484,125.432 35.629 C 125.068 35.795,124.833 36.403,124.833 37.180 C 124.833 37.509,124.081 38.359,123.927 38.205 C 123.875 38.153,123.833 37.975,123.833 37.809 C 123.833 37.627,123.671 37.466,123.425 37.404 C 123.067 37.314,123.010 37.196,122.966 36.442 C 122.923 35.696,122.867 35.576,122.542 35.530 C 122.227 35.485,122.167 35.374,122.167 34.835 C 122.167 33.939,122.027 33.667,121.566 33.667 C 121.193 33.667,121.167 33.606,121.167 32.750 C 121.167 31.889,121.142 31.833,120.759 31.833 C 120.384 31.833,120.347 31.762,120.300 30.958 C 120.254 30.152,120.216 30.079,119.810 30.032 C 119.394 29.984,119.367 29.925,119.302 28.891 C 119.247 28.038,119.157 27.741,118.885 27.525 C 118.662 27.349,118.497 26.963,118.424 26.450 C 118.334 25.816,118.228 25.618,117.915 25.499 C 117.586 25.374,117.510 25.213,117.468 24.549 C 117.427 23.907,117.343 23.718,117.042 23.585 C 116.773 23.468,116.666 23.278,116.664 22.919 C 116.660 22.025,116.491 21.667,116.073 21.667 C 115.721 21.667,115.679 21.583,115.634 20.792 C 115.587 19.976,115.552 19.913,115.125 19.864 C 114.688 19.814,114.667 19.770,114.667 18.906 C 114.667 18.051,114.643 18.000,114.250 18.000 C 113.856 18.000,113.833 17.950,113.833 17.083 C 113.833 16.427,113.770 16.167,113.609 16.167 C 113.168 16.167,112.854 15.582,112.802 14.665 C 112.760 13.924,112.683 13.721,112.401 13.597 C 112.209 13.512,111.972 13.231,111.874 12.972 L 111.696 12.500 106.851 12.500 L 102.006 12.500 101.903 12.913 M156.896 12.664 C 155.907 13.063,155.833 16.329,156.792 17.238 L 157.417 17.830 159.625 17.832 L 161.833 17.833 161.833 32.667 L 161.833 47.500 159.177 47.500 C 157.397 47.500,156.482 47.562,156.404 47.686 C 156.231 47.967,156.106 50.710,156.235 51.398 L 156.348 52.000 164.091 52.000 L 171.833 52.000 171.833 49.750 L 171.833 47.500 169.083 47.500 L 166.333 47.500 166.333 42.836 L 166.333 38.172 171.375 38.127 L 176.417 38.083 176.469 37.715 C 176.518 37.374,176.622 37.343,177.886 37.298 C 179.237 37.250,179.251 37.245,179.303 36.792 C 179.353 36.354,179.397 36.333,180.261 36.333 C 181.116 36.333,181.167 36.310,181.167 35.917 C 181.167 35.547,181.237 35.500,181.792 35.497 C 182.532 35.494,182.773 35.365,182.857 34.924 C 182.891 34.741,183.101 34.555,183.334 34.500 C 183.596 34.439,183.770 34.267,183.803 34.035 C 183.836 33.810,184.012 33.628,184.258 33.566 C 184.592 33.483,184.678 33.329,184.767 32.658 C 184.854 32.003,184.941 31.842,185.229 31.801 C 185.536 31.757,185.590 31.623,185.633 30.801 C 185.674 30.016,185.769 29.759,186.178 29.321 L 186.673 28.791 186.628 25.271 L 186.583 21.750 186.125 21.697 C 185.682 21.646,185.667 21.611,185.667 20.648 C 185.667 19.815,185.600 19.585,185.262 19.247 C 185.040 19.025,184.833 18.672,184.804 18.463 C 184.765 18.192,184.622 18.069,184.302 18.032 C 183.955 17.992,183.842 17.878,183.802 17.532 C 183.766 17.218,183.641 17.068,183.385 17.031 C 183.158 16.999,183.001 16.842,182.969 16.615 C 182.932 16.357,182.782 16.235,182.458 16.197 C 182.105 16.157,182.000 16.056,182.000 15.757 C 182.000 15.341,181.721 15.167,181.058 15.167 C 180.630 15.167,180.167 14.826,180.167 14.512 C 180.167 14.407,179.794 14.333,179.261 14.333 C 178.397 14.333,178.353 14.312,178.303 13.875 L 178.250 13.417 175.709 13.371 C 173.213 13.325,173.164 13.317,172.898 12.912 L 172.628 12.500 164.939 12.511 C 160.710 12.516,157.091 12.585,156.896 12.664 M193.278 12.611 C 193.217 12.672,193.167 13.685,193.167 14.861 L 193.167 17.000 195.667 17.000 L 198.167 17.000 198.167 32.250 L 198.167 47.500 195.667 47.500 L 193.167 47.500 193.167 49.750 L 193.167 52.000 200.906 52.000 L 208.646 52.000 208.763 51.225 C 208.882 50.429,208.753 47.941,208.578 47.658 C 208.523 47.569,207.319 47.500,205.823 47.500 L 203.167 47.500 203.167 41.917 L 203.167 36.333 206.981 36.333 C 210.647 36.333,210.798 36.346,210.881 36.665 C 210.990 37.080,211.637 37.333,212.591 37.333 C 213.237 37.333,213.340 37.384,213.432 37.750 C 213.525 38.122,213.622 38.167,214.340 38.167 C 215.094 38.167,215.148 38.196,215.197 38.625 C 215.239 38.985,215.348 39.095,215.708 39.136 C 216.095 39.181,216.167 39.267,216.167 39.689 C 216.167 40.295,216.432 40.833,216.732 40.833 C 216.899 40.833,216.981 41.425,217.071 43.283 C 217.191 45.762,217.319 46.333,217.750 46.333 C 217.941 46.333,217.999 46.714,218.036 48.208 C 218.081 49.979,218.103 50.086,218.439 50.134 C 218.682 50.169,218.827 50.341,218.893 50.676 C 218.970 51.059,219.081 51.167,219.401 51.167 C 219.698 51.167,219.825 51.269,219.863 51.542 C 219.948 52.137,226.158 52.220,226.417 51.629 C 226.509 51.422,226.733 51.230,226.917 51.203 C 227.957 51.050,227.985 51.025,228.098 50.174 C 228.187 49.504,228.273 49.342,228.562 49.301 C 228.895 49.253,228.920 49.142,228.964 47.458 L 229.011 45.667 226.756 45.667 L 224.500 45.667 224.500 46.072 C 224.500 46.391,224.402 46.489,224.042 46.531 C 223.682 46.572,223.566 46.690,223.494 47.083 C 223.404 47.579,223.401 47.580,223.196 47.208 C 223.082 47.002,222.878 46.833,222.744 46.833 C 222.538 46.833,222.500 46.305,222.500 43.406 C 222.500 39.982,222.406 39.333,221.911 39.333 C 221.747 39.333,221.666 39.155,221.664 38.792 C 221.661 37.909,221.486 37.503,221.063 37.397 C 220.785 37.327,220.667 37.179,220.667 36.902 C 220.667 36.619,220.548 36.477,220.250 36.402 C 219.951 36.327,219.833 36.185,219.833 35.899 C 219.833 35.569,219.749 35.500,219.344 35.500 C 218.935 35.500,218.847 35.426,218.803 35.042 C 218.762 34.687,218.651 34.572,218.309 34.532 C 217.774 34.470,217.496 33.667,218.009 33.667 C 218.555 33.667,218.833 33.468,218.833 33.077 C 218.833 32.777,218.938 32.677,219.292 32.636 C 219.620 32.598,219.765 32.477,219.803 32.209 C 219.836 31.975,220.009 31.796,220.262 31.732 C 220.621 31.642,220.667 31.539,220.667 30.826 C 220.667 30.073,220.696 30.019,221.125 29.969 C 221.552 29.920,221.587 29.858,221.634 29.043 C 221.678 28.274,221.733 28.156,222.092 28.066 L 222.500 27.964 222.500 24.399 L 222.500 20.833 222.092 20.833 C 221.711 20.833,221.680 20.767,221.633 19.875 C 221.586 18.968,221.559 18.914,221.125 18.864 C 220.694 18.814,220.667 18.762,220.667 17.992 C 220.667 17.263,220.622 17.162,220.260 17.071 C 220.012 17.009,219.832 16.828,219.801 16.609 C 219.765 16.357,219.613 16.234,219.292 16.197 C 218.939 16.157,218.833 16.056,218.833 15.758 C 218.833 15.337,218.473 15.173,217.542 15.169 C 217.076 15.167,217.000 15.109,217.000 14.750 C 217.000 14.357,216.949 14.333,216.094 14.333 C 215.230 14.333,215.186 14.312,215.136 13.875 L 215.083 13.417 212.792 13.370 C 210.932 13.333,210.500 13.279,210.500 13.084 C 210.500 12.953,210.355 12.767,210.178 12.673 C 209.819 12.480,193.468 12.421,193.278 12.611 M234.076 12.909 C 233.631 13.354,233.422 17.000,233.841 17.000 C 233.937 17.000,234.190 17.188,234.402 17.417 C 234.776 17.820,234.856 17.833,236.977 17.833 L 239.167 17.833 239.167 32.663 L 239.167 47.492 236.458 47.538 L 233.750 47.583 233.703 49.793 L 233.657 52.003 241.870 51.960 L 250.083 51.917 250.130 49.940 C 250.192 47.350,250.371 47.500,247.230 47.500 L 244.667 47.500 244.667 32.672 L 244.667 17.843 246.875 17.797 C 249.022 17.751,249.085 17.740,249.137 17.375 C 249.178 17.084,249.299 17.000,249.678 17.000 L 250.167 17.000 250.167 15.328 L 250.167 13.656 249.589 13.078 L 249.011 12.500 241.748 12.500 L 234.485 12.500 234.076 12.909 M259.674 12.742 C 259.533 12.911,259.490 13.639,259.528 15.172 C 259.599 17.965,259.445 17.833,262.615 17.833 L 265.000 17.833 265.000 32.667 L 265.000 47.500 262.250 47.500 L 259.500 47.500 259.500 49.750 L 259.500 52.000 266.833 52.000 L 274.167 52.000 274.167 49.750 L 274.167 47.500 271.917 47.500 L 269.667 47.500 269.667 35.399 C 269.667 24.433,269.691 23.307,269.930 23.399 C 270.075 23.454,270.263 23.500,270.347 23.500 C 270.431 23.500,270.500 23.689,270.500 23.921 C 270.500 24.255,270.603 24.362,271.000 24.442 C 271.387 24.519,271.500 24.631,271.500 24.938 C 271.500 25.243,271.590 25.333,271.895 25.333 C 272.243 25.333,272.303 25.432,272.401 26.165 C 272.494 26.867,272.575 27.013,272.922 27.100 C 273.215 27.173,273.333 27.317,273.333 27.598 C 273.333 27.881,273.452 28.023,273.750 28.098 C 274.049 28.173,274.167 28.315,274.167 28.601 C 274.167 28.933,274.250 29.000,274.667 29.000 C 275.100 29.000,275.167 29.061,275.169 29.458 C 275.173 30.209,275.345 30.631,275.682 30.719 C 275.857 30.765,276.000 30.944,276.000 31.118 C 276.000 31.516,276.311 31.833,276.700 31.833 C 276.909 31.833,277.000 31.960,277.000 32.250 C 277.000 32.583,277.083 32.667,277.417 32.667 C 277.726 32.667,277.833 32.755,277.833 33.008 C 277.833 33.508,278.303 34.333,278.588 34.333 C 278.749 34.333,278.833 34.503,278.833 34.830 C 278.833 35.218,278.923 35.349,279.240 35.429 C 279.488 35.491,279.668 35.672,279.699 35.891 C 279.735 36.143,279.887 36.266,280.208 36.303 C 280.582 36.346,280.667 36.439,280.667 36.805 C 280.667 37.111,280.786 37.307,281.042 37.419 C 281.298 37.531,281.473 37.820,281.597 38.333 C 281.734 38.905,281.863 39.096,282.138 39.137 C 282.395 39.174,282.500 39.307,282.500 39.592 C 282.500 39.882,282.616 40.023,282.918 40.099 C 283.172 40.162,283.376 40.360,283.436 40.602 C 283.507 40.883,283.653 41.000,283.935 41.000 C 284.293 41.000,284.333 41.072,284.333 41.717 C 284.333 42.484,284.552 42.833,285.033 42.833 C 285.242 42.833,285.333 42.960,285.333 43.247 C 285.333 43.549,285.446 43.688,285.750 43.765 C 286.049 43.840,286.167 43.982,286.167 44.268 C 286.167 44.600,286.250 44.667,286.667 44.667 C 287.155 44.667,287.167 44.686,287.167 45.497 C 287.167 46.243,287.209 46.338,287.583 46.432 C 287.884 46.507,288.000 46.648,288.000 46.939 C 288.000 47.253,288.110 47.364,288.500 47.442 C 288.887 47.519,289.000 47.631,289.000 47.938 C 289.000 48.243,289.090 48.333,289.395 48.333 C 289.743 48.333,289.803 48.432,289.901 49.165 C 289.993 49.860,290.077 50.013,290.413 50.097 C 290.691 50.167,290.830 50.334,290.865 50.641 C 290.902 50.953,291.027 51.099,291.292 51.137 C 291.563 51.175,291.667 51.302,291.667 51.595 L 291.667 52.000 293.837 52.000 L 296.008 52.000 296.171 51.572 C 296.272 51.305,296.333 44.908,296.333 34.489 L 296.333 17.833 298.168 17.833 C 299.974 17.833,300.011 17.826,300.520 17.340 L 301.036 16.846 300.976 14.948 C 300.890 12.231,301.722 12.500,293.399 12.500 L 286.340 12.500 286.236 12.913 C 286.095 13.475,286.219 17.365,286.386 17.625 C 286.482 17.774,287.134 17.833,288.677 17.833 L 290.833 17.833 290.833 29.471 L 290.833 41.109 290.333 41.036 C 289.893 40.971,289.833 40.896,289.833 40.411 C 289.833 39.689,289.687 39.333,289.390 39.333 C 289.258 39.333,289.071 39.108,288.975 38.833 C 288.847 38.465,288.695 38.333,288.400 38.333 C 288.067 38.333,288.000 38.250,288.000 37.833 C 288.000 37.417,287.933 37.333,287.602 37.333 C 287.258 37.333,287.189 37.231,287.091 36.575 C 287.002 35.980,286.890 35.783,286.572 35.662 C 286.297 35.558,286.167 35.379,286.167 35.106 C 286.167 34.818,286.051 34.674,285.762 34.601 C 285.509 34.538,285.336 34.359,285.303 34.125 C 285.265 33.857,285.120 33.735,284.792 33.697 C 284.436 33.656,284.333 33.557,284.333 33.250 C 284.333 32.611,284.051 32.052,283.679 31.955 C 283.442 31.893,283.333 31.730,283.333 31.435 C 283.333 31.117,283.226 30.979,282.917 30.902 C 282.618 30.827,282.500 30.685,282.500 30.399 C 282.500 30.067,282.416 30.000,282.000 30.000 C 281.560 30.000,281.500 29.943,281.500 29.517 C 281.500 29.220,281.341 28.884,281.086 28.642 C 280.859 28.427,280.671 28.096,280.670 27.908 C 280.666 27.486,280.364 27.167,279.967 27.167 C 279.758 27.167,279.667 27.040,279.667 26.750 C 279.667 26.417,279.583 26.333,279.250 26.333 C 278.898 26.333,278.833 26.256,278.833 25.833 C 278.833 25.526,278.747 25.333,278.609 25.333 C 278.239 25.333,277.863 24.787,277.805 24.167 C 277.762 23.715,277.668 23.572,277.385 23.531 C 277.158 23.499,277.001 23.342,276.969 23.115 C 276.932 22.857,276.782 22.735,276.458 22.697 C 276.074 22.653,276.000 22.565,276.000 22.156 C 276.000 21.755,275.930 21.667,275.614 21.667 C 275.279 21.667,275.207 21.551,275.072 20.792 C 274.944 20.068,274.852 19.907,274.542 19.863 C 274.271 19.825,274.167 19.698,274.167 19.408 C 274.167 19.121,274.050 18.977,273.760 18.904 C 273.512 18.842,273.332 18.661,273.301 18.443 C 273.266 18.193,273.113 18.068,272.800 18.031 C 272.392 17.984,272.346 17.908,272.300 17.198 C 272.261 16.593,272.171 16.382,271.901 16.263 C 271.709 16.179,271.472 15.898,271.374 15.638 C 271.257 15.328,271.077 15.167,270.848 15.167 C 270.588 15.167,270.500 15.061,270.500 14.750 C 270.500 14.417,270.417 14.333,270.083 14.333 C 269.786 14.333,269.667 14.243,269.667 14.019 C 269.667 13.557,269.220 12.775,268.879 12.640 C 268.246 12.390,259.889 12.482,259.674 12.742 M308.506 12.822 C 308.398 13.025,308.333 15.072,308.333 18.322 L 308.333 23.500 310.821 23.500 C 314.070 23.500,313.833 23.776,313.833 19.988 L 313.833 17.000 318.000 17.000 L 322.167 17.000 322.167 32.250 L 322.167 47.500 319.680 47.500 C 316.385 47.500,316.667 47.281,316.667 49.851 L 316.667 52.000 324.917 52.000 L 333.167 52.000 333.167 50.014 C 333.167 47.262,333.437 47.500,330.316 47.500 L 327.667 47.500 327.667 32.250 L 327.667 17.000 331.833 17.000 L 336.000 17.000 336.000 19.885 C 336.000 23.674,335.785 23.417,338.945 23.417 L 341.417 23.417 341.417 18.119 C 341.417 13.591,341.380 12.798,341.167 12.663 C 340.601 12.305,308.699 12.461,308.506 12.822 M353.905 12.628 C 353.806 12.695,353.677 12.881,353.618 13.042 C 353.533 13.271,353.314 13.333,352.589 13.333 C 351.675 13.333,351.667 13.338,351.667 13.833 C 351.667 14.328,351.657 14.333,350.750 14.333 L 349.833 14.333 349.833 14.974 C 349.833 15.608,349.456 16.167,349.029 16.167 C 348.903 16.167,348.833 16.491,348.833 17.072 C 348.833 17.883,348.795 17.982,348.458 18.030 C 347.774 18.127,347.813 22.199,348.500 22.417 C 348.779 22.505,348.833 22.669,348.833 23.415 C 348.833 24.270,348.854 24.311,349.333 24.417 C 349.721 24.502,349.833 24.617,349.833 24.930 C 349.833 25.249,349.920 25.333,350.250 25.333 C 350.584 25.333,350.667 25.416,350.667 25.754 C 350.667 26.082,350.770 26.196,351.133 26.268 C 351.391 26.320,351.671 26.523,351.758 26.722 C 351.913 27.076,351.988 27.083,355.417 27.083 L 358.917 27.083 358.970 26.708 C 359.007 26.450,359.137 26.333,359.389 26.333 C 359.608 26.333,359.820 26.183,359.919 25.958 C 360.009 25.752,360.252 25.509,360.458 25.419 C 360.683 25.320,360.833 25.108,360.833 24.888 C 360.833 24.613,360.947 24.509,361.292 24.469 C 361.641 24.429,361.762 24.316,361.799 23.995 C 361.828 23.751,362.003 23.505,362.216 23.411 C 362.573 23.255,362.585 23.163,362.629 20.212 L 362.674 17.175 362.254 17.069 C 361.938 16.990,361.833 16.854,361.831 16.524 C 361.827 15.741,361.637 15.332,361.230 15.230 C 360.951 15.160,360.833 15.013,360.833 14.732 C 360.833 14.402,360.749 14.333,360.345 14.333 C 359.968 14.333,359.844 14.249,359.803 13.965 C 359.741 13.535,359.287 13.374,358.068 13.350 C 357.333 13.336,357.195 13.278,357.030 12.917 C 356.837 12.493,354.427 12.270,353.905 12.628 M357.202 15.667 L 357.276 16.167 355.333 16.167 L 353.391 16.167 353.464 15.667 L 353.538 15.167 355.333 15.167 L 357.129 15.167 357.202 15.667 M207.991 17.393 C 208.173 17.872,208.780 17.996,210.958 17.998 C 211.806 17.999,212.500 18.070,212.500 18.155 C 212.500 18.510,213.061 18.833,213.679 18.833 C 214.231 18.833,214.333 18.888,214.333 19.181 C 214.333 19.415,214.498 19.591,214.833 19.718 C 215.128 19.829,215.333 20.027,215.333 20.200 C 215.333 20.372,215.501 20.536,215.740 20.596 C 216.024 20.667,216.163 20.832,216.199 21.141 C 216.235 21.453,216.360 21.599,216.625 21.637 C 216.996 21.689,217.000 21.716,217.000 24.417 C 217.000 27.118,216.996 27.144,216.625 27.197 C 216.298 27.243,216.244 27.363,216.200 28.125 C 216.154 28.924,216.114 29.000,215.749 29.000 C 215.171 29.000,214.541 29.327,214.450 29.674 C 214.402 29.856,214.183 29.996,213.894 30.029 C 213.547 30.068,213.402 30.186,213.363 30.458 C 213.316 30.790,213.209 30.835,212.447 30.850 C 211.213 30.874,210.759 31.033,210.697 31.465 C 210.644 31.832,210.634 31.833,206.905 31.833 L 203.167 31.833 203.167 24.417 L 203.167 17.000 205.504 17.000 C 207.806 17.000,207.844 17.006,207.991 17.393 M173.125 17.944 L 176.500 18.053 176.500 18.443 C 176.500 18.765,176.587 18.833,176.999 18.833 C 177.335 18.833,177.652 18.996,177.975 19.333 C 178.270 19.642,178.621 19.833,178.893 19.833 C 179.252 19.833,179.333 19.911,179.333 20.250 C 179.333 20.583,179.417 20.667,179.750 20.667 C 180.124 20.667,180.167 20.734,180.167 21.320 C 180.167 22.228,180.305 22.500,180.768 22.500 L 181.167 22.500 181.167 25.739 L 181.167 28.978 180.708 29.031 C 180.351 29.072,180.239 29.182,180.198 29.531 C 180.162 29.845,180.037 29.995,179.782 30.031 C 179.551 30.064,179.397 30.221,179.363 30.458 C 179.330 30.692,179.158 30.871,178.904 30.935 C 178.661 30.996,178.457 31.198,178.397 31.435 C 178.327 31.716,178.180 31.833,177.899 31.833 C 177.585 31.833,177.500 31.922,177.500 32.250 C 177.500 32.652,177.462 32.667,176.406 32.667 C 175.170 32.667,174.667 32.861,174.667 33.339 C 174.667 33.656,174.531 33.667,170.500 33.667 L 166.333 33.667 166.333 25.750 L 166.333 17.833 168.042 17.834 C 168.981 17.834,171.269 17.883,173.125 17.944 M351.650 20.208 C 351.641 21.515,351.582 22.396,351.518 22.167 C 351.447 21.911,351.261 21.729,351.035 21.697 C 350.681 21.646,350.667 21.573,350.667 19.833 L 350.667 18.022 351.125 17.953 C 351.377 17.915,351.602 17.872,351.625 17.858 C 351.648 17.845,351.659 18.902,351.650 20.208 M359.901 18.968 C 360.111 20.750,359.852 22.667,359.402 22.667 C 359.056 22.667,359.012 22.580,358.967 21.793 C 358.920 20.972,358.886 20.912,358.417 20.812 L 357.917 20.706 358.458 20.686 L 359.000 20.667 359.000 19.273 C 359.000 17.896,359.005 17.880,359.396 17.955 C 359.739 18.021,359.806 18.155,359.901 18.968 M356.167 23.800 C 356.167 23.965,356.257 24.190,356.367 24.300 C 356.522 24.456,356.474 24.500,356.150 24.500 C 355.921 24.500,355.640 24.593,355.526 24.707 C 355.362 24.872,355.288 24.863,355.165 24.665 C 355.069 24.510,355.071 24.396,355.172 24.361 C 355.261 24.331,355.333 24.124,355.333 23.903 C 355.333 23.584,355.420 23.500,355.750 23.500 C 356.040 23.500,356.167 23.591,356.167 23.800 M27.167 24.250 C 27.167 24.387,27.288 24.500,27.437 24.500 C 27.659 24.500,27.670 24.455,27.500 24.250 C 27.386 24.113,27.264 24.000,27.230 24.000 C 27.195 24.000,27.167 24.113,27.167 24.250 M6.833 31.714 C 6.833 32.175,7.055 32.315,7.260 31.984 C 7.322 31.884,7.251 31.680,7.103 31.532 C 6.855 31.283,6.833 31.297,6.833 31.714 M25.333 41.270 C 25.333 41.492,25.379 41.503,25.583 41.333 C 25.721 41.219,25.833 41.098,25.833 41.063 C 25.833 41.028,25.721 41.000,25.583 41.000 C 25.446 41.000,25.333 41.122,25.333 41.270 M23.500 43.104 C 23.500 43.325,23.545 43.337,23.750 43.167 C 23.887 43.053,24.000 42.931,24.000 42.896 C 24.000 42.862,23.887 42.833,23.750 42.833 C 23.613 42.833,23.500 42.955,23.500 43.104 M28.669 57.496 C 28.525 57.765,28.539 57.808,28.746 57.728 C 28.886 57.675,29.000 57.527,29.000 57.399 C 29.000 57.073,28.875 57.110,28.669 57.496 " stroke="none" fill="#fff" fill-rule="evenodd"></path><path id="path1" d="M30.750 1.479 C 30.225 1.561,30.072 1.663,30.030 1.958 C 29.989 2.250,29.868 2.333,29.488 2.333 C 29.059 2.333,29.000 2.393,29.000 2.822 C 29.000 3.155,28.900 3.343,28.685 3.411 C 27.897 3.661,28.042 6.000,28.845 6.000 C 28.930 6.000,29.000 6.220,29.000 6.489 C 29.000 6.758,29.074 7.173,29.164 7.411 L 29.329 7.843 31.456 7.797 L 33.583 7.750 33.636 7.292 C 33.678 6.930,33.775 6.833,34.099 6.833 L 34.510 6.833 34.463 4.625 L 34.417 2.417 33.966 2.365 C 33.702 2.334,33.475 2.183,33.416 1.998 C 33.361 1.825,33.189 1.648,33.033 1.604 C 32.434 1.436,31.389 1.378,30.750 1.479 M9.871 9.862 C 9.759 9.975,9.667 10.184,9.667 10.327 C 9.667 10.470,9.498 10.662,9.292 10.752 C 8.669 11.025,8.627 14.109,9.244 14.263 C 9.549 14.340,9.667 14.480,9.667 14.768 C 9.667 15.098,9.751 15.167,10.156 15.167 C 10.565 15.167,10.653 15.241,10.697 15.625 C 10.791 16.442,14.017 16.355,14.137 15.532 C 14.178 15.251,14.303 15.167,14.678 15.167 L 15.167 15.167 15.167 12.917 L 15.167 10.667 14.761 10.667 C 14.442 10.667,14.344 10.568,14.303 10.208 L 14.250 9.750 12.163 9.704 C 10.681 9.671,10.017 9.717,9.871 9.862 M48.611 9.778 C 48.550 9.839,48.500 10.020,48.500 10.181 C 48.500 10.341,48.294 10.622,48.042 10.806 C 47.337 11.319,47.223 14.091,47.900 14.261 C 48.216 14.340,48.333 14.478,48.333 14.768 C 48.333 15.100,48.417 15.167,48.833 15.167 C 49.250 15.167,49.333 15.233,49.333 15.566 C 49.333 16.437,52.477 16.432,52.874 15.560 C 52.988 15.311,53.196 15.167,53.440 15.167 C 53.955 15.167,54.024 14.824,53.965 12.583 L 53.917 10.750 53.458 10.697 C 53.074 10.653,53.000 10.565,53.000 10.156 L 53.000 9.667 50.861 9.667 C 49.685 9.667,48.672 9.717,48.611 9.778 M29.000 18.489 C 29.000 25.575,28.968 25.405,30.281 25.296 C 30.999 25.237,31.295 25.128,31.528 24.841 C 31.819 24.481,31.833 24.479,31.833 24.797 C 31.833 25.168,32.137 25.335,32.805 25.331 C 33.261 25.328,33.706 25.129,33.681 24.940 C 33.639 24.628,33.703 24.537,34.083 24.364 L 34.500 24.174 34.500 18.537 C 34.500 14.375,34.448 12.848,34.300 12.700 C 34.162 12.562,33.311 12.500,31.550 12.500 L 29.000 12.500 29.000 18.489 M18.200 16.367 C 18.090 16.477,18.000 16.663,18.000 16.780 C 18.000 16.898,17.819 17.039,17.598 17.095 C 17.363 17.154,17.155 17.358,17.098 17.586 C 17.038 17.825,16.854 17.998,16.625 18.030 C 16.010 18.117,15.952 20.667,16.565 20.667 C 16.891 20.667,16.989 20.763,17.031 21.125 C 17.072 21.485,17.182 21.595,17.542 21.636 C 17.902 21.677,18.000 21.776,18.000 22.094 C 18.000 22.413,18.087 22.500,18.406 22.500 C 18.724 22.500,18.823 22.598,18.864 22.958 C 18.905 23.315,19.016 23.428,19.365 23.468 C 19.711 23.508,19.825 23.622,19.865 23.968 C 19.901 24.282,20.026 24.432,20.281 24.469 C 20.509 24.501,20.666 24.658,20.698 24.885 C 20.734 25.141,20.884 25.266,21.198 25.302 C 21.545 25.342,21.658 25.455,21.698 25.802 C 21.739 26.151,21.851 26.262,22.208 26.303 C 22.568 26.344,22.667 26.442,22.667 26.761 C 22.667 27.080,22.754 27.167,23.072 27.167 C 23.391 27.167,23.489 27.265,23.531 27.625 C 23.583 28.082,23.586 28.083,24.917 28.083 C 26.247 28.083,26.250 28.082,26.303 27.625 C 26.344 27.265,26.442 27.167,26.761 27.167 C 27.083 27.167,27.167 27.080,27.167 26.750 C 27.167 26.454,27.257 26.333,27.480 26.333 C 28.319 26.333,28.456 24.626,27.625 24.531 C 27.241 24.486,27.167 24.398,27.167 23.989 C 27.167 23.579,27.100 23.500,26.750 23.500 C 26.420 23.500,26.333 23.416,26.333 23.094 C 26.333 22.776,26.235 22.677,25.875 22.636 C 25.515 22.595,25.405 22.485,25.364 22.125 C 25.323 21.765,25.224 21.667,24.906 21.667 C 24.583 21.667,24.500 21.581,24.500 21.246 C 24.500 20.912,24.397 20.804,24.000 20.725 C 23.613 20.648,23.500 20.536,23.500 20.229 C 23.500 19.900,23.415 19.833,23.000 19.833 C 22.556 19.833,22.500 19.778,22.500 19.333 C 22.500 18.911,22.435 18.833,22.083 18.833 C 21.750 18.833,21.667 18.750,21.667 18.417 C 21.667 18.065,21.589 18.000,21.167 18.000 C 20.722 18.000,20.667 17.944,20.667 17.500 C 20.667 17.076,20.602 17.000,20.246 17.000 C 19.950 17.000,19.778 16.876,19.667 16.583 C 19.491 16.121,18.580 15.986,18.200 16.367 M43.009 16.560 C 42.916 16.804,42.693 16.997,42.467 17.029 C 42.192 17.068,42.069 17.210,42.032 17.532 C 41.992 17.878,41.878 17.992,41.532 18.032 C 41.220 18.068,41.068 18.193,41.032 18.443 C 41.001 18.661,40.822 18.842,40.574 18.904 C 40.279 18.978,40.167 19.120,40.167 19.420 C 40.167 19.768,40.088 19.833,39.667 19.833 C 39.245 19.833,39.167 19.899,39.167 20.247 C 39.167 20.549,39.054 20.688,38.750 20.765 C 38.451 20.840,38.333 20.982,38.333 21.268 C 38.333 21.600,38.250 21.667,37.833 21.667 C 37.389 21.667,37.333 21.722,37.333 22.167 C 37.333 22.583,37.267 22.667,36.935 22.667 C 36.649 22.667,36.507 22.784,36.432 23.083 C 36.355 23.388,36.216 23.500,35.913 23.500 C 35.161 23.500,35.291 25.991,36.083 26.761 C 36.404 27.073,36.667 27.402,36.667 27.493 C 36.667 27.757,37.601 28.167,38.200 28.165 C 39.461 28.161,40.000 27.980,40.000 27.562 C 40.000 27.292,40.096 27.167,40.300 27.167 C 40.684 27.167,41.000 26.851,41.000 26.467 C 41.000 26.258,41.127 26.167,41.417 26.167 C 41.747 26.167,41.833 26.083,41.833 25.761 C 41.833 25.444,41.932 25.344,42.285 25.303 C 42.608 25.265,42.764 25.132,42.834 24.833 C 42.894 24.574,43.066 24.397,43.288 24.365 C 43.506 24.333,43.667 24.172,43.698 23.955 C 43.730 23.732,43.908 23.560,44.167 23.500 C 44.465 23.431,44.598 23.275,44.636 22.952 C 44.677 22.605,44.779 22.500,45.076 22.500 C 45.348 22.500,45.494 22.379,45.566 22.095 C 45.629 21.842,45.808 21.670,46.042 21.637 C 46.310 21.598,46.432 21.453,46.469 21.125 C 46.498 20.873,46.587 20.667,46.666 20.667 C 47.344 20.667,47.548 19.424,46.917 19.136 C 46.615 18.999,46.500 18.816,46.500 18.473 C 46.500 18.083,46.429 18.000,46.094 18.000 C 45.776 18.000,45.677 17.902,45.636 17.542 C 45.596 17.193,45.483 17.072,45.161 17.034 C 44.917 17.006,44.671 16.830,44.578 16.617 C 44.325 16.042,43.221 16.002,43.009 16.560 M1.508 29.318 C 1.324 29.663,1.262 33.786,1.434 34.236 C 1.521 34.461,1.923 34.500,4.189 34.500 L 6.842 34.500 6.796 31.792 L 6.750 29.083 4.216 29.037 C 1.845 28.994,1.672 29.012,1.508 29.318 M11.704 29.140 C 11.543 29.242,11.502 29.901,11.537 31.846 L 11.583 34.417 18.000 34.417 L 24.417 34.417 24.463 31.939 C 24.494 30.254,24.448 29.388,24.317 29.231 C 24.101 28.970,12.108 28.884,11.704 29.140 M38.621 29.115 C 38.351 29.186,38.329 29.421,38.371 31.805 L 38.417 34.417 44.796 34.460 L 51.175 34.504 51.129 31.794 L 51.083 29.083 45.000 29.060 C 41.654 29.047,38.784 29.072,38.621 29.115 M56.782 29.106 C 56.719 29.170,56.667 29.397,56.667 29.611 C 56.667 29.915,56.575 30.000,56.250 30.000 L 55.833 30.000 55.833 31.833 L 55.833 33.667 56.250 33.667 C 56.583 33.667,56.667 33.750,56.667 34.083 L 56.667 34.500 59.000 34.500 L 61.333 34.500 61.333 34.095 C 61.333 33.802,61.437 33.675,61.708 33.637 C 62.067 33.586,62.085 33.506,62.131 31.792 L 62.178 30.000 61.767 30.000 C 61.442 30.000,61.344 29.904,61.303 29.542 L 61.250 29.083 59.074 29.037 C 57.877 29.012,56.846 29.043,56.782 29.106 M23.500 35.905 C 23.500 36.198,23.396 36.325,23.125 36.363 C 22.856 36.402,22.735 36.547,22.697 36.875 C 22.653 37.259,22.565 37.333,22.156 37.333 C 21.726 37.333,21.667 37.393,21.667 37.822 C 21.667 38.232,21.592 38.320,21.208 38.364 C 20.880 38.402,20.735 38.523,20.697 38.792 C 20.658 39.063,20.532 39.167,20.238 39.167 C 19.901 39.167,19.833 39.249,19.833 39.656 C 19.833 40.065,19.759 40.153,19.375 40.197 C 19.047 40.235,18.902 40.356,18.863 40.625 C 18.825 40.896,18.698 41.000,18.405 41.000 C 18.066 41.000,18.000 41.082,18.000 41.500 C 18.000 41.944,17.944 42.000,17.500 42.000 C 17.078 42.000,17.000 42.065,17.000 42.417 C 17.000 42.750,16.917 42.833,16.583 42.833 C 15.943 42.833,15.930 45.434,16.569 45.595 C 16.809 45.655,17.012 45.858,17.072 46.098 C 17.145 46.388,17.288 46.500,17.587 46.500 C 17.891 46.500,18.000 46.589,18.000 46.837 C 18.000 47.589,19.583 47.643,19.770 46.898 C 19.840 46.617,19.987 46.500,20.268 46.500 C 20.582 46.500,20.667 46.412,20.667 46.083 C 20.667 45.731,20.744 45.667,21.167 45.667 C 21.611 45.667,21.667 45.611,21.667 45.167 C 21.667 44.744,21.731 44.667,22.083 44.667 C 22.417 44.667,22.500 44.583,22.500 44.250 C 22.500 43.898,22.578 43.833,23.000 43.833 C 23.444 43.833,23.500 43.778,23.500 43.333 C 23.500 42.889,23.556 42.833,24.000 42.833 C 24.422 42.833,24.500 42.769,24.500 42.417 C 24.500 42.083,24.583 42.000,24.917 42.000 C 25.269 42.000,25.333 41.922,25.333 41.500 C 25.333 41.076,25.398 41.000,25.755 41.000 C 26.194 41.000,27.607 39.762,27.977 39.053 C 28.384 38.272,28.160 37.333,27.566 37.333 C 27.251 37.333,27.167 37.245,27.167 36.917 C 27.167 36.589,27.082 36.500,26.771 36.500 C 26.464 36.500,26.352 36.387,26.275 36.000 L 26.175 35.500 24.837 35.500 C 23.532 35.500,23.500 35.510,23.500 35.905 M37.303 35.958 C 37.261 36.318,37.167 36.412,36.867 36.396 C 36.571 36.380,36.461 36.485,36.387 36.854 C 36.314 37.223,36.199 37.333,35.889 37.333 C 35.284 37.333,35.350 40.050,35.958 40.137 C 36.192 40.170,36.371 40.342,36.434 40.595 C 36.506 40.879,36.652 41.000,36.924 41.000 C 37.223 41.000,37.323 41.105,37.364 41.458 C 37.405 41.818,37.515 41.928,37.875 41.969 C 38.235 42.011,38.333 42.109,38.333 42.428 C 38.333 42.746,38.420 42.833,38.739 42.833 C 39.058 42.833,39.156 42.932,39.197 43.292 C 39.239 43.652,39.348 43.761,39.708 43.803 C 40.068 43.844,40.167 43.942,40.167 44.261 C 40.167 44.580,40.254 44.667,40.572 44.667 C 40.891 44.667,40.989 44.765,41.031 45.125 C 41.072 45.485,41.182 45.595,41.542 45.636 C 41.902 45.677,42.000 45.776,42.000 46.094 C 42.000 46.411,42.087 46.500,42.399 46.500 C 42.680 46.500,42.827 46.617,42.897 46.898 C 43.084 47.643,44.667 47.589,44.667 46.837 C 44.667 46.574,44.776 46.500,45.167 46.500 C 45.589 46.500,45.667 46.435,45.667 46.083 C 45.667 45.750,45.750 45.667,46.083 45.667 C 46.448 45.667,46.500 45.594,46.500 45.083 C 46.500 44.613,46.564 44.500,46.830 44.500 C 47.475 44.500,47.486 43.219,46.842 43.051 C 46.645 42.999,46.499 42.794,46.468 42.525 C 46.432 42.214,46.306 42.068,46.042 42.030 C 45.808 41.997,45.629 41.824,45.565 41.570 C 45.505 41.332,45.303 41.123,45.074 41.066 C 44.844 41.008,44.665 40.823,44.635 40.609 C 44.599 40.357,44.446 40.234,44.125 40.197 C 43.766 40.156,43.667 40.057,43.667 39.742 C 43.667 39.454,43.551 39.311,43.260 39.238 C 43.012 39.175,42.832 38.995,42.801 38.776 C 42.765 38.524,42.613 38.401,42.292 38.364 C 41.933 38.323,41.833 38.224,41.833 37.909 C 41.833 37.622,41.717 37.477,41.431 37.405 C 41.191 37.345,40.988 37.142,40.928 36.902 C 40.855 36.612,40.712 36.500,40.413 36.500 C 40.088 36.500,40.000 36.415,40.000 36.101 C 40.000 35.297,37.395 35.159,37.303 35.958 M29.415 38.563 C 29.096 38.797,29.082 39.035,29.036 44.986 L 28.988 51.167 31.317 51.167 C 32.597 51.167,33.837 51.094,34.072 51.004 L 34.500 50.842 34.500 45.156 L 34.500 39.471 34.011 39.286 C 33.742 39.185,33.487 38.970,33.445 38.809 C 33.279 38.174,32.000 38.288,32.000 38.937 C 32.000 39.357,30.774 39.232,30.581 38.792 C 30.381 38.336,29.865 38.235,29.415 38.563 M10.792 47.596 C 10.723 47.666,10.667 47.855,10.667 48.017 C 10.667 48.214,10.516 48.329,10.208 48.364 C 9.848 48.405,9.739 48.515,9.697 48.875 C 9.656 49.235,9.558 49.333,9.239 49.333 C 8.604 49.333,8.603 52.587,9.237 52.828 C 9.471 52.917,9.664 53.144,9.696 53.366 C 9.749 53.743,9.792 53.751,12.042 53.796 L 14.333 53.843 14.333 53.421 C 14.333 53.083,14.415 53.000,14.750 53.000 L 15.167 53.000 15.167 50.768 L 15.167 48.536 14.708 48.425 C 14.456 48.363,14.123 48.149,13.968 47.948 C 13.676 47.571,11.100 47.286,10.792 47.596 M49.444 47.611 C 49.383 47.672,49.333 47.855,49.333 48.017 C 49.333 48.214,49.182 48.329,48.875 48.364 C 48.518 48.405,48.405 48.516,48.365 48.865 C 48.329 49.178,48.204 49.328,47.948 49.365 C 47.252 49.464,47.376 52.833,48.076 52.833 C 48.203 52.833,48.356 53.058,48.417 53.333 L 48.526 53.833 50.763 53.833 L 53.000 53.833 53.000 53.428 C 53.000 53.109,53.098 53.011,53.458 52.969 L 53.917 52.917 53.967 51.250 C 54.037 48.942,53.940 48.513,53.325 48.390 C 53.054 48.336,52.833 48.187,52.833 48.058 C 52.833 47.604,49.846 47.210,49.444 47.611 M29.343 56.072 C 29.229 56.208,29.096 56.623,29.046 56.993 C 28.964 57.605,28.896 57.697,28.560 57.652 C 28.338 57.623,28.172 58.110,28.169 58.803 C 28.166 59.615,28.399 60.167,28.745 60.167 C 28.887 60.167,28.999 60.380,29.031 60.708 C 29.074 61.156,29.161 61.259,29.531 61.302 C 29.845 61.338,29.995 61.463,30.031 61.718 C 30.130 62.409,33.500 62.292,33.500 61.598 C 33.500 61.475,33.725 61.330,34.000 61.275 L 34.500 61.175 34.500 58.921 L 34.500 56.667 34.095 56.667 C 33.802 56.667,33.675 56.563,33.637 56.292 C 33.568 55.807,29.726 55.611,29.343 56.072 " stroke="none" fill="#fff" fill-rule="evenodd"></path><path id="path2" d="" stroke="none" fill="#fff" fill-rule="evenodd"></path><path id="path3" d="" stroke="none" fill="#fff" fill-rule="evenodd"></path><path id="path4" d="" stroke="none" fill="#fff" fill-rule="evenodd"></path></g></svg>