<svg viewBox="0 0 284 82" fill="none" xmlns="http://www.w3.org/2000/svg">
<path d="M80.4964 43.5418C80.5026 40.2515 80.5765 37.4641 80.7179 35.1794C80.905 32.8948 81.2285 31.0218 81.6882 29.5603C82.1937 28.0989 82.8812 27.0492 83.7506 26.4111C84.6659 25.7273 85.8547 25.3868 87.3171 25.3896C88.7794 25.3924 89.9441 25.7373 90.811 26.4245C91.7238 27.066 92.4073 28.1183 92.8615 29.5816C93.3614 31.0449 93.6777 32.9191 93.8105 35.2043C93.9889 37.4895 94.075 40.2773 94.0688 43.5676C94.0625 46.8579 93.9658 49.6682 93.7786 51.9984C93.6371 54.2831 93.3137 56.1561 92.8082 57.6175C92.3486 59.0333 91.6611 60.083 90.7458 60.7668C89.8763 61.4049 88.7104 61.7226 87.2481 61.7198C85.7857 61.717 84.5982 61.3949 83.6854 60.7534C82.8185 60.0662 82.135 59.0139 81.635 57.5963C81.1808 56.1331 80.8644 54.2588 80.686 51.9736C80.5533 49.6427 80.4901 46.8321 80.4964 43.5418ZM70.6255 43.5231C70.6184 47.2703 70.7718 50.698 71.0858 53.8061C71.4455 56.9143 72.1945 59.5891 73.3327 61.8305C74.5166 64.072 76.2041 65.7889 78.3954 66.9812C80.5867 68.1735 83.5331 68.7732 87.2347 68.7802C90.9362 68.7872 93.8849 68.1988 96.0807 67.0148C98.2765 65.8308 99.9477 64.1203 101.094 61.8832C102.287 59.6462 103.046 56.9743 103.372 53.8674C103.743 50.7606 103.933 47.3336 103.94 43.5863C103.947 39.8848 103.77 36.4799 103.411 33.3717C103.097 30.2179 102.348 27.5203 101.164 25.2788C100.026 23.0374 98.361 21.2977 96.1699 20.0597C93.9788 18.776 91.0324 18.1306 87.3309 18.1236C83.6293 18.1165 80.6805 18.7507 78.4846 20.0261C76.2887 21.2558 74.5946 22.9891 73.4022 25.2261C72.2555 27.4631 71.4963 30.1579 71.1248 33.3104C70.799 36.4173 70.6325 39.8215 70.6255 43.5231ZM111.537 37.6371L111.479 68.0722L120.938 68.0902L120.996 37.6551L126.48 37.6655L126.492 31.222L121.009 31.2116L121.015 27.9899C121.017 26.9388 121.292 26.1853 121.841 25.7294C122.391 25.2734 123.328 25.0467 124.653 25.0492L125.544 25.0509C125.956 25.0517 126.275 25.0752 126.504 25.1213L126.517 18.4036C124.826 18.2633 123.135 18.1916 121.445 18.1884C119.936 18.1855 118.565 18.3428 117.331 18.6604C116.096 18.9322 115.044 19.4101 114.175 20.0939C113.351 20.7778 112.709 21.6906 112.25 22.8321C111.791 23.9737 111.56 25.3671 111.557 27.0122L111.549 31.1936L106.751 31.1845L106.738 37.628L111.537 37.6371ZM131.82 37.6756L131.762 68.1107L141.222 68.1287L141.279 37.6936L146.763 37.704L146.775 31.2605L141.292 31.2501L141.298 28.0284C141.3 26.9773 141.575 26.2238 142.125 25.7679C142.674 25.312 143.611 25.0852 144.936 25.0878L145.827 25.0895C146.239 25.0902 146.559 25.1137 146.787 25.1598L146.8 18.4422C145.109 18.3019 143.418 18.2301 141.728 18.2269C140.22 18.224 138.848 18.3814 137.614 18.6989C136.379 18.9708 135.328 19.4486 134.458 20.1324C133.634 20.8163 132.993 21.7291 132.533 22.8707C132.074 24.0123 131.843 25.4056 131.84 27.0508L131.832 31.2322L127.034 31.2231L127.021 37.6665L131.82 37.6756ZM156.935 56.0941L148.435 56.078L148.433 57.3804C148.429 59.1626 148.632 60.7853 149.04 62.2485C149.449 63.6659 150.155 64.8782 151.158 65.8855C152.207 66.8929 153.6 67.6495 155.335 68.1555C157.117 68.6616 159.333 68.9171 161.983 68.9222C163.994 68.926 165.822 68.7238 167.468 68.3157C169.16 67.9076 170.6 67.2248 171.79 66.2674C173.026 65.3101 173.988 64.1238 174.676 62.7084C175.364 61.2474 175.71 59.5343 175.714 57.5693C175.72 54.7817 175.107 52.587 173.876 50.9852C172.645 49.3378 170.546 48.0085 167.577 46.9975L161.891 45.0674C160.293 44.5616 159.197 43.9426 158.605 43.2103C158.058 42.4781 157.785 41.655 157.787 40.7411C157.789 39.4158 158.225 38.4341 159.095 37.796C160.01 37.1122 161.062 36.7715 162.25 36.7738C163.804 36.7767 164.877 37.2357 165.469 38.1508C166.107 39.0203 166.424 40.4147 166.421 42.3341L174.921 42.3502L174.923 40.8422C174.93 37.5062 173.906 34.9223 171.853 33.0904C169.801 31.2586 166.626 30.3386 162.331 30.3304C159.909 30.3258 157.829 30.6189 156.091 31.2097C154.399 31.8006 153.004 32.5976 151.905 33.6009C150.806 34.6042 150.004 35.7908 149.499 37.1608C148.994 38.4851 148.74 39.9013 148.737 41.4094C148.732 44.0142 149.391 46.1632 150.713 47.8566C152.035 49.5043 153.997 50.7875 156.601 51.7065L163.245 54.1182C164.158 54.4856 164.957 54.9898 165.641 55.6308C166.326 56.2262 166.667 57.118 166.664 58.3062C166.662 59.7685 166.226 60.8644 165.356 61.594C164.486 62.3235 163.32 62.6869 161.858 62.6841C160.258 62.681 159.025 62.1989 158.159 61.2376C157.338 60.2306 156.93 58.9274 156.933 57.328L156.935 56.0941ZM180.884 18.7125L180.868 26.8011L190.328 26.8191L190.343 18.7305L180.884 18.7125ZM180.86 31.3253L180.79 68.2039L190.249 68.2218L190.319 31.3433L180.86 31.3253ZM205.653 50.977C205.657 48.5093 205.707 46.4301 205.802 44.7395C205.942 43.0032 206.196 41.6327 206.563 40.6281C206.931 39.5777 207.435 38.8246 208.076 38.3689C208.716 37.9131 209.562 37.6862 210.613 37.6882C212.487 37.6918 213.765 38.631 214.447 40.5059C215.174 42.381 215.534 45.5577 215.525 50.0361C215.522 51.5899 215.428 53.0292 215.243 54.3541C215.103 55.6334 214.827 56.7296 214.414 57.6428C214.047 58.5561 213.52 59.2863 212.833 59.8333C212.193 60.3348 211.37 60.5846 210.364 60.5827C209.359 60.5808 208.537 60.3279 207.898 59.824C207.305 59.2745 206.826 58.5652 206.462 57.6963C206.144 56.7817 205.918 55.753 205.783 54.6103C205.694 53.4677 205.65 52.2566 205.653 50.977ZM224.609 31.4084L215.561 31.3912L215.553 35.504L215.416 35.5038C214.506 33.5827 213.343 32.2553 211.927 31.5214C210.512 30.7875 209.142 30.4193 207.817 30.4168C205.258 30.412 203.2 30.9793 201.644 32.1188C200.134 33.2584 198.966 34.7414 198.14 36.5677C197.36 38.3485 196.83 40.3582 196.552 42.5969C196.319 44.8357 196.201 47.029 196.196 49.1768C196.184 55.8945 197.111 60.6946 198.98 63.5772C200.894 66.4141 203.724 67.8361 207.471 67.8433C208.979 67.8461 210.42 67.4376 211.792 66.6176C213.21 65.7977 214.401 64.7032 215.363 63.3341L215.5 63.3343L215.491 68.2012C215.487 70.0292 215.096 71.5593 214.317 72.7917C213.538 74.0241 212.188 74.6384 210.269 74.6348C209.675 74.6337 209.104 74.5412 208.556 74.3574C208.053 74.1736 207.574 73.9214 207.118 73.6006C206.159 72.9133 205.681 71.9756 205.684 70.7874L196.635 70.7702C196.629 73.9234 197.699 76.3475 199.843 78.0424C202.033 79.7831 205.139 80.6573 209.161 80.6649C214.69 80.6754 218.623 79.4947 220.958 77.1228C223.339 74.751 224.533 71.1888 224.542 66.4362L224.609 31.4084ZM231.281 19.3566L231.188 68.2996L240.648 68.3176L240.694 43.8461C240.702 39.7789 242.374 37.7485 245.71 37.7549C247.126 37.7575 248.154 38.1479 248.792 38.926C249.43 39.6584 249.748 40.9843 249.744 42.9036L249.696 68.3347L259.155 68.3527L259.207 41.0022C259.214 37.3007 258.397 34.6258 256.755 32.9775C255.159 31.3293 252.852 30.5024 249.836 30.4966C245.678 30.4887 242.682 32.0596 240.848 35.2094L240.711 35.2091L240.741 19.3746L231.281 19.3566ZM267.608 20.9337L267.588 31.49L262.79 31.4809L262.778 37.9244L267.576 37.9335L267.536 59.0461C267.532 60.9198 267.644 62.4737 267.87 63.708C268.096 64.9423 268.505 65.9484 269.098 66.7264C269.736 67.4588 270.627 67.9632 271.768 68.2396C272.956 68.4703 274.464 68.5874 276.292 68.5909C277.389 68.593 278.417 68.5492 279.377 68.4597C280.382 68.4159 281.411 68.395 282.462 68.397L282.474 61.8164C282.154 61.8615 281.811 61.9065 281.446 61.9515C281.08 61.9509 280.714 61.9502 280.349 61.9495C278.978 61.9469 278.065 61.6481 277.609 61.0531C277.199 60.4126 276.995 59.3611 276.998 57.8988L277.036 37.9514L282.519 37.9619L282.532 31.5184L277.048 31.508L277.068 20.9517L267.608 20.9337Z" fill="white"/>
<path d="M19.6968 22.9566C21.5482 22.9566 23.4552 22.9566 25.3313 22.9566C25.5034 22.9578 25.675 22.9764 25.8435 23.0121V23.0121C26.0114 22.9734 26.1834 22.9547 26.3557 22.9566C28.2071 22.9566 30.1079 22.9566 31.9902 22.9566C32.5991 22.9877 33.2072 22.8831 33.7708 22.6504C34.3343 22.4177 34.839 22.0628 35.2487 21.6112C35.7918 21.0563 36.1517 20.3481 36.2797 19.5822C36.4077 18.8164 36.2977 18.0297 35.9646 17.3283C35.7038 16.6137 35.2266 15.9983 34.5993 15.5679C33.972 15.1375 33.2259 14.9137 32.4654 14.9276C30.2622 14.9276 28.0528 14.8967 25.8435 14.8967C23.6341 14.8967 21.4247 14.8967 19.2154 14.8967C18.4552 14.8846 17.71 15.1092 17.0831 15.5393C16.4562 15.9695 15.9785 16.5838 15.7162 17.2974C15.383 17.9992 15.2735 18.7865 15.4027 19.5526C15.5319 20.3187 15.8933 21.0266 16.4383 21.5804C16.845 22.0376 17.3485 22.3983 17.9122 22.6364C18.4758 22.8744 19.0855 22.9838 19.6968 22.9566Z" fill="#fff"/>
<path d="M32.0396 59.5098H26.4051C26.2327 59.5068 26.0611 59.4861 25.8929 59.4482V59.4482C25.7244 59.4839 25.5528 59.5025 25.3806 59.5037H19.6968C19.0879 59.4726 18.4798 59.5772 17.9162 59.8099C17.3527 60.0426 16.8479 60.3975 16.4383 60.8491C15.8933 61.4028 15.5319 62.1107 15.4027 62.8768C15.2735 63.6429 15.383 64.4302 15.7162 65.132C15.9831 65.8425 16.4619 66.4539 17.0878 66.8833C17.7137 67.3127 18.4564 67.5394 19.2154 67.5327C21.4247 67.5327 23.6341 67.543 25.8435 67.5636C28.0528 67.5636 30.2622 67.5635 32.4654 67.5327C33.2243 67.5394 33.9671 67.3127 34.593 66.8833C35.2189 66.4539 35.6977 65.8425 35.9646 65.132C36.2977 64.4306 36.4077 63.6439 36.2797 62.8781C36.1517 62.1122 35.7918 61.404 35.2487 60.8491C34.8439 60.4052 34.3468 60.0553 33.7924 59.8239C33.2381 59.5926 32.6398 59.4854 32.0396 59.5098Z" fill="#fff"/>
<path d="M50.4858 49.5678C50.1053 49.1518 49.6372 48.8254 49.1154 48.6119C48.5936 48.3985 48.031 48.3034 47.468 48.3335H35.3165C33.9959 48.3335 33.4651 47.9941 33.2923 46.982C33.2547 46.7735 33.2629 46.5593 33.3162 46.3543C33.3695 46.1493 33.4668 45.9583 33.6012 45.7946C33.7356 45.6308 33.9039 45.4982 34.0946 45.4059C34.2853 45.3137 34.4937 45.264 34.7055 45.2602C36.0385 45.2108 37.3901 45.4083 38.7169 45.1059C39.4718 44.9182 40.1545 44.5117 40.6793 43.9375C41.2041 43.3633 41.5476 42.647 41.6669 41.8783C41.7009 41.6557 41.7133 41.4304 41.7039 41.2055C41.7133 40.9786 41.7009 40.7513 41.6669 40.5267C41.5461 39.7586 41.202 39.043 40.6775 38.4691C40.1529 37.8951 39.4711 37.4882 38.7169 37.299C37.3901 37.0028 36.0385 37.2003 34.7055 37.1509C34.4934 37.1463 34.2849 37.0956 34.0942 37.0027C33.9036 36.9097 33.7353 36.7766 33.601 36.6124C33.4667 36.4482 33.3695 36.2568 33.3163 36.0515C33.263 35.8462 33.2548 35.6317 33.2923 35.4229C33.4713 34.4108 33.9959 34.0714 35.3165 34.0714H47.468C48.031 34.1015 48.5936 34.0064 49.1154 33.793C49.6372 33.5796 50.1053 33.2531 50.4858 32.8371C50.7826 32.557 51.0419 32.2396 51.2572 31.8929C51.5802 31.2811 51.7393 30.596 51.7188 29.9045C51.6984 29.213 51.4991 28.5386 51.1405 27.947C50.7819 27.3553 50.2762 26.8666 49.6726 26.5286C49.0691 26.1905 48.3881 26.0144 47.6963 26.0177C40.6609 26.0177 33.6256 26.0177 26.5902 26.0177C26.3461 26.0274 26.1017 26.0087 25.8619 25.9622V25.9622C25.6221 26.0087 25.3778 26.0274 25.1337 26.0177C18.0983 26.0177 11.0629 26.0177 4.0275 26.0177C3.3348 26.0139 2.65295 26.1898 2.04853 26.5282C1.44412 26.8666 0.937828 27.356 0.579061 27.9485C0.220294 28.5411 0.0213304 29.2165 0.00162191 29.909C-0.0180866 30.6014 0.142105 31.2871 0.466586 31.8991C0.6817 32.2441 0.941044 32.5594 1.23801 32.8371C1.61759 33.2526 2.08458 33.5788 2.60533 33.7922C3.12608 34.0056 3.68765 34.101 4.24966 34.0714H16.4012C17.728 34.0714 18.2525 34.417 18.4253 35.4229C18.4638 35.6313 18.4566 35.8456 18.4041 36.051C18.3516 36.2563 18.2551 36.4479 18.1213 36.6122C17.9875 36.7766 17.8195 36.9098 17.6291 37.0028C17.4386 37.0959 17.2302 37.1464 17.0183 37.1509C15.6791 37.2003 14.3338 37.0028 13.0069 37.299C12.2528 37.4882 11.5709 37.8951 11.0463 38.4691C10.5218 39.043 10.1777 39.7586 10.057 40.5267C9.99938 40.9774 9.99938 41.4337 10.057 41.8844C10.1785 42.6522 10.5228 43.3674 11.0472 43.9412C11.5717 44.515 12.2531 44.9221 13.0069 45.1121C14.3338 45.4083 15.6791 45.2108 17.0183 45.2602C17.2299 45.2638 17.4382 45.3135 17.6287 45.4058C17.8191 45.4981 17.9872 45.6308 18.1211 45.7947C18.2551 45.9586 18.3516 46.1497 18.4042 46.3548C18.4567 46.5598 18.4639 46.7739 18.4253 46.982C18.2525 47.9941 17.728 48.3397 16.4012 48.3397C12.3527 48.3397 8.30427 48.3397 4.24966 48.3397C3.68765 48.3101 3.12608 48.4054 2.60533 48.6188C2.08458 48.8322 1.61759 49.1585 1.23801 49.574C0.941044 49.8517 0.6817 50.167 0.466586 50.512C0.143581 51.1238 -0.015437 51.8089 0.00501196 52.5004C0.0254609 53.1919 0.224688 53.8663 0.583279 54.458C0.941871 55.0496 1.44758 55.5383 2.05117 55.8764C2.65477 56.2145 3.33567 56.3905 4.0275 56.3872C11.0629 56.3872 18.0983 56.3872 25.1337 56.3872C25.3778 56.3745 25.6225 56.3931 25.8619 56.4427V56.4427C26.1017 56.3962 26.3461 56.3776 26.5902 56.3872C33.6256 56.3872 40.6609 56.3872 47.6963 56.3872C48.3881 56.3905 49.0691 56.2145 49.6726 55.8764C50.2762 55.5383 50.7819 55.0496 51.1405 54.458C51.4991 53.8663 51.6984 53.1919 51.7188 52.5004C51.7393 51.8089 51.5802 51.1238 51.2572 50.512C51.0422 50.1651 50.7829 49.8477 50.4858 49.5678V49.5678ZM28.386 48.3335H23.3378C23.124 48.3439 22.9104 48.3098 22.7104 48.2335C22.5105 48.1571 22.3285 48.0402 22.176 47.89C22.0235 47.7398 21.9038 47.5596 21.8244 47.3609C21.745 47.1621 21.7077 46.9491 21.7147 46.7351C21.7138 46.5264 21.7576 46.3198 21.8432 46.1294C21.9287 45.9389 22.0541 45.769 22.2107 45.631C22.3674 45.4931 22.5518 45.3903 22.7516 45.3295C22.9513 45.2687 23.1617 45.2514 23.3686 45.2787H28.3366C28.5433 45.2513 28.7535 45.2686 28.9529 45.3294C29.1523 45.3902 29.3364 45.4931 29.4926 45.6312C29.6488 45.7693 29.7736 45.9393 29.8584 46.1298C29.9433 46.3202 29.9862 46.5267 29.9844 46.7351C29.9941 46.9476 29.9593 47.1597 29.8824 47.358C29.8055 47.5563 29.6881 47.7364 29.5377 47.8868C29.3873 48.0372 29.2072 48.1546 29.0089 48.2315C28.8106 48.3084 28.5985 48.3432 28.386 48.3335V48.3335ZM28.386 37.1633H23.3995C23.1927 37.1896 22.9827 37.1715 22.7834 37.1103C22.5842 37.0492 22.4001 36.9463 22.2437 36.8085C22.0872 36.6708 21.9619 36.5013 21.876 36.3113C21.7902 36.1214 21.7456 35.9153 21.7456 35.7069C21.7385 35.4929 21.7759 35.2798 21.8552 35.081C21.9346 34.8823 22.0543 34.7022 22.2068 34.552C22.3593 34.4018 22.5414 34.2849 22.7413 34.2085C22.9413 34.1322 23.1549 34.0981 23.3686 34.1084H28.4169C28.6306 34.097 28.8444 34.1305 29.0445 34.2066C29.2446 34.2826 29.4265 34.3996 29.5788 34.5501C29.731 34.7006 29.8501 34.8813 29.9285 35.0804C30.0068 35.2796 30.0427 35.493 30.0338 35.7069C30.0375 35.9209 29.9941 36.1331 29.9068 36.3285C29.8195 36.5239 29.6904 36.6978 29.5285 36.8379C29.3667 36.978 29.1761 37.0808 28.9701 37.1392C28.7642 37.1975 28.5479 37.21 28.3366 37.1756L28.386 37.1633Z" fill="#fff"/>
</svg>
