<svg viewBox="0 0 162 35" fill="none" xmlns="http://www.w3.org/2000/svg">
<path d="M54.2012 21.8823L56.7402 21.0863C57.1658 24.1968 59.5434 26.0837 62.5081 26.0837C65.1792 26.0837 67.3807 24.8307 67.3807 22.2066C67.3807 16.4132 55.1845 19.8922 55.1845 11.7105C55.1845 7.93666 58.384 5.44531 62.4641 5.44531C66.4855 5.44531 69.4208 7.22906 69.9198 11.3715L67.3514 11.9464C67.0578 9.39609 65.2086 7.74502 62.5081 7.74502C59.7049 7.74502 57.8556 9.30764 57.8556 11.5926C57.8556 17.3861 70.0519 13.7154 70.0519 22.1182C70.0519 26.1279 66.6616 28.3834 62.5081 28.3834C57.9877 28.3834 54.7882 25.9216 54.2012 21.8823Z" fill="#fff"></path>
<path d="M74.5416 14.5998C75.0993 12.7718 77.1393 11.0176 79.7518 11.0176C84.4336 11.0176 86.6791 14.762 86.6791 19.7004C86.6791 24.6389 84.008 28.3833 79.5903 28.3833C77.154 28.3833 75.4956 27.1598 74.9085 25.774V34.5454H72.208V11.4156H74.2187L74.5416 14.5998ZM74.9085 21.4842C74.9085 24.8306 77.1247 26.2163 79.1941 26.2163C81.9239 26.2163 83.9493 24.0935 83.9493 19.6857C83.9493 15.2779 82.1734 13.1994 79.1941 13.1994C77.11 13.1994 74.9085 14.7915 74.9085 18.5359V21.4842Z" fill="#fff"></path>
<path d="M100.654 24.7415C100.654 25.8029 101.109 26.201 101.872 26.201C102.239 26.201 102.665 26.0388 102.899 25.8324L103.061 27.852C102.635 28.1469 101.843 28.309 101.241 28.309C99.9934 28.309 99.0981 27.7783 98.5991 26.8201C98.4083 26.4516 98.2762 26.0241 98.1735 25.5228C97.5131 27.3508 95.473 28.3385 93.3889 28.3385C90.483 28.3385 88.2815 26.6432 88.2815 23.6654C88.2815 20.3927 90.9233 18.2994 96.5591 18.2994C96.926 18.2994 97.5131 18.3289 98.1148 18.3584V16.4272C98.1148 14.4371 97.0287 13.243 94.8566 13.243C92.7138 13.243 91.6865 14.4076 91.6278 16.2208L88.986 15.7638C89.3529 12.6828 91.8479 11.0317 95.018 11.0317C98.4817 11.0317 100.654 12.6533 100.654 16.1324V24.7415ZM98.1148 20.3927C97.6892 20.3632 97.1315 20.3338 96.5591 20.3338C92.9046 20.3338 90.9526 21.3215 90.9526 23.5769C90.9526 25.1985 92.068 26.2599 94.02 26.2599C96.0601 26.2599 98.1148 24.9627 98.1148 21.7932V20.3927Z" fill="#fff"></path>
<path d="M113.51 13.9659C113.216 13.9069 112.659 13.8627 112.189 13.8627C109.591 13.8627 107.669 15.9855 107.669 19.5972V27.9705H104.968V11.4156H107.111L107.478 15.6612C108.138 12.7128 110.604 10.5606 113.671 11.1207L113.51 13.9659Z" fill="#fff"></path>
<path d="M124.222 13.9659C123.928 13.9069 123.371 13.8627 122.901 13.8627C120.303 13.8627 118.381 15.9855 118.381 19.5972V27.9705H115.68V11.4156H117.823L118.19 15.6612C118.85 12.7128 121.316 10.5606 124.383 11.1207L124.222 13.9659Z" fill="#fff"></path>
<path d="M132.441 28.3833C128.053 28.3833 125.059 25.2728 125.059 19.7004C125.059 14.1281 128.053 11.0176 132.441 11.0176C136.829 11.0176 139.823 14.1281 139.823 19.7004C139.823 25.2728 136.829 28.3833 132.441 28.3833ZM132.441 13.1404C129.403 13.1404 127.789 15.4254 127.789 19.7004C127.789 23.9755 129.403 26.2605 132.441 26.2605C135.479 26.2605 137.094 23.9755 137.094 19.7004C137.094 15.4254 135.465 13.1404 132.441 13.1404Z" fill="#fff"></path>
<path d="M152.488 11.4155L155.923 24.7273H155.981L159.401 11.4155H161.999L157.317 27.9705H154.675L151.241 14.9241H151.182L147.748 27.9705H145.106L140.454 11.4155H143.125L146.559 24.7273H146.618L150.052 11.4155H152.488Z" fill="#fff"></path>
<path fill-rule="evenodd" clip-rule="evenodd" d="M28.947 5.52495C29.3677 4.60906 29.9666 3.53237 30.7457 2.56917C31.7338 1.34754 33.1136 0.281394 35.0433 0.0577943C39.3805 -0.44479 41.4222 2.46347 42.165 3.63357C42.738 4.46118 43.143 4.98408 43.6645 5.1318C43.8627 5.17716 43.9847 5.35862 44 5.55519V6.74976C44 6.9917 43.817 7.17315 43.5882 7.20339C42.6274 7.29412 40.4312 7.76287 40.4312 10.0915C40.4312 11.0895 40.7362 11.8909 41.1023 12.8133L41.1231 12.868C41.591 14.0947 42.1241 15.4921 42.1241 17.6823C42.1241 24.2292 36.0568 27.452 23.5856 27.5394C23.0875 28.7916 22.6825 29.9113 22.3889 30.7621C26.5068 29.4012 29.3282 31.4425 29.4655 31.5484L28.5199 32.8034C28.3979 32.7127 25.5612 30.7167 21.4586 32.8639C21.3366 32.9395 21.2145 32.9697 21.0773 32.9697C20.8943 32.9697 20.7113 32.9093 20.574 32.7883C20.33 32.5917 20.2232 32.2591 20.3147 31.9566C20.3165 31.9513 20.3195 31.9422 20.3235 31.9295C20.3279 31.9158 20.3336 31.8979 20.3407 31.8759C20.4661 31.4823 21.0072 29.7841 21.8738 27.5551C15.2653 27.7093 10.0226 29.1234 6.71057 30.3084C3.25415 31.5355 1.23172 32.7775 0.879811 32.9936L0.869324 33L0 31.6845C0.767163 31.1923 9.0267 26.096 22.5105 25.971C22.9364 24.9457 23.4167 23.857 23.9445 22.763C23.9903 22.6723 24.0322 22.5853 24.0742 22.4984C24.1161 22.4114 24.158 22.3245 24.2038 22.2338H24.0513C19.7126 22.4323 14.4507 22.6888 8.73621 24.6461C8.03819 24.9393 7.33215 25.219 6.61906 25.4848L6.59765 25.4528C6.48799 25.4981 6.3782 25.544 6.26827 25.5906L5.64297 24.139C6.55311 23.7514 7.45271 23.4096 8.34038 23.1076C20.8252 17.812 27.2472 9.43359 28.947 5.52495ZM35.229 1.63341C38.5876 1.24423 40.0889 3.39127 40.843 4.48159C41.209 5.01083 41.575 5.52495 42.0326 5.94834C41.8648 6.00883 41.6971 6.06931 41.514 6.14492C39.8059 6.87073 38.8603 8.27699 38.8603 10.1066C38.8603 11.4007 39.2379 12.3654 39.6323 13.3731L39.6381 13.3879C40.0957 14.5522 40.5532 15.7468 40.5532 17.6823C40.5532 19.6922 40.5532 25.6885 24.2365 25.9592C24.5906 25.1294 24.9777 24.2699 25.3934 23.4132L25.3936 23.4127C25.6071 22.9744 25.8205 22.536 26.034 22.1279C30.6399 21.8709 34.2239 21.2963 35.8863 17.9696C36.4201 16.896 36.3743 15.5805 35.7643 14.6127C35.2 13.7206 34.2544 13.2367 33.0801 13.2367C30.4416 13.2367 27.7421 15.7166 25.0426 20.6158C24.6918 20.6309 24.3411 20.646 23.975 20.6612C21.3359 20.7787 18.3692 20.9165 15.1598 21.4321C18.0282 19.7446 20.6708 17.8147 22.999 15.6863C26.1328 12.8312 28.7439 9.56156 30.1069 6.81259C30.6028 5.81239 31.1651 4.58628 31.9939 3.56161C32.812 2.55008 33.8447 1.79382 35.229 1.63341ZM33.0953 14.8093C31.2499 14.8093 29.1147 16.8053 26.949 20.4948C30.9144 20.1924 33.3241 19.5724 34.4679 17.274C34.7577 16.6994 34.7425 15.9434 34.4222 15.4444C34.1629 15.0361 33.7206 14.8093 33.0953 14.8093Z" fill="#fff"></path>
</svg>